<?xml version="1.0"?>
<!-- Generated by SVGo and Plotinum VG -->
<svg width="288pt" height="288pt" viewBox="0 0 288 288"
	xmlns="http://www.w3.org/2000/svg"
	xmlns:xlink="http://www.w3.org/1999/xlink">
<g transform="scale(1, -1) translate(0, -288)">
<path d="M0,0L288,0L288,288L0,288Z" style="fill:#FFFFFF" />
<text x="50.186" y="-276.45" transform="scale(1, -1)"
	style="font-family:Times;font-weight:normal;font-style:normal;font-size:12px">Scan speed, in million rows per second</text>
<text x="115.68" y="-3.8613" transform="scale(1, -1)"
	style="font-family:Times;font-weight:normal;font-style:normal;font-size:12px">number of goroutines</text>
<text x="77.928" y="-15.602" transform="scale(1, -1)"
	style="font-family:Times;font-weight:normal;font-style:normal;font-size:10px">10</text>
<text x="115.44" y="-15.602" transform="scale(1, -1)"
	style="font-family:Times;font-weight:normal;font-style:normal;font-size:10px">20</text>
<text x="152.95" y="-15.602" transform="scale(1, -1)"
	style="font-family:Times;font-weight:normal;font-style:normal;font-size:10px">30</text>
<text x="190.47" y="-15.602" transform="scale(1, -1)"
	style="font-family:Times;font-weight:normal;font-style:normal;font-size:10px">40</text>
<text x="227.98" y="-15.602" transform="scale(1, -1)"
	style="font-family:Times;font-weight:normal;font-style:normal;font-size:10px">50</text>
<text x="265.49" y="-15.602" transform="scale(1, -1)"
	style="font-family:Times;font-weight:normal;font-style:normal;font-size:10px">60</text>
<path d="M82.928,25.23L82.928,33.23" style="fill:none;stroke:#000000;stroke-width:0.5" />
<path d="M120.44,25.23L120.44,33.23" style="fill:none;stroke:#000000;stroke-width:0.5" />
<path d="M157.95,25.23L157.95,33.23" style="fill:none;stroke:#000000;stroke-width:0.5" />
<path d="M195.47,25.23L195.47,33.23" style="fill:none;stroke:#000000;stroke-width:0.5" />
<path d="M232.98,25.23L232.98,33.23" style="fill:none;stroke:#000000;stroke-width:0.5" />
<path d="M270.49,25.23L270.49,33.23" style="fill:none;stroke:#000000;stroke-width:0.5" />
<path d="M52.917,29.23L52.917,33.23" style="fill:none;stroke:#000000;stroke-width:0.5" />
<path d="M60.42,29.23L60.42,33.23" style="fill:none;stroke:#000000;stroke-width:0.5" />
<path d="M67.923,29.23L67.923,33.23" style="fill:none;stroke:#000000;stroke-width:0.5" />
<path d="M75.425,29.23L75.425,33.23" style="fill:none;stroke:#000000;stroke-width:0.5" />
<path d="M90.431,29.23L90.431,33.23" style="fill:none;stroke:#000000;stroke-width:0.5" />
<path d="M97.933,29.23L97.933,33.23" style="fill:none;stroke:#000000;stroke-width:0.5" />
<path d="M105.44,29.23L105.44,33.23" style="fill:none;stroke:#000000;stroke-width:0.5" />
<path d="M112.94,29.23L112.94,33.23" style="fill:none;stroke:#000000;stroke-width:0.5" />
<path d="M127.94,29.23L127.94,33.23" style="fill:none;stroke:#000000;stroke-width:0.5" />
<path d="M135.45,29.23L135.45,33.23" style="fill:none;stroke:#000000;stroke-width:0.5" />
<path d="M142.95,29.23L142.95,33.23" style="fill:none;stroke:#000000;stroke-width:0.5" />
<path d="M150.45,29.23L150.45,33.23" style="fill:none;stroke:#000000;stroke-width:0.5" />
<path d="M165.46,29.23L165.46,33.23" style="fill:none;stroke:#000000;stroke-width:0.5" />
<path d="M172.96,29.23L172.96,33.23" style="fill:none;stroke:#000000;stroke-width:0.5" />
<path d="M180.46,29.23L180.46,33.23" style="fill:none;stroke:#000000;stroke-width:0.5" />
<path d="M187.97,29.23L187.97,33.23" style="fill:none;stroke:#000000;stroke-width:0.5" />
<path d="M202.97,29.23L202.97,33.23" style="fill:none;stroke:#000000;stroke-width:0.5" />
<path d="M210.47,29.23L210.47,33.23" style="fill:none;stroke:#000000;stroke-width:0.5" />
<path d="M217.98,29.23L217.98,33.23" style="fill:none;stroke:#000000;stroke-width:0.5" />
<path d="M225.48,29.23L225.48,33.23" style="fill:none;stroke:#000000;stroke-width:0.5" />
<path d="M240.48,29.23L240.48,33.23" style="fill:none;stroke:#000000;stroke-width:0.5" />
<path d="M247.99,29.23L247.99,33.23" style="fill:none;stroke:#000000;stroke-width:0.5" />
<path d="M255.49,29.23L255.49,33.23" style="fill:none;stroke:#000000;stroke-width:0.5" />
<path d="M262.99,29.23L262.99,33.23" style="fill:none;stroke:#000000;stroke-width:0.5" />
<path d="M278,29.23L278,33.23" style="fill:none;stroke:#000000;stroke-width:0.5" />
<path d="M285.5,29.23L285.5,33.23" style="fill:none;stroke:#000000;stroke-width:0.5" />
<path d="M49.166,33.23L285.5,33.23" style="fill:none;stroke:#000000;stroke-width:0.5" />
<g transform="rotate(90)">
<text x="148.2" y="11.555" transform="scale(1, -1)"
	style="font-family:Times;font-weight:normal;font-style:normal;font-size:12px">rps</text>
</g>
<text x="20.416" y="-58.695" transform="scale(1, -1)"
	style="font-family:Times;font-weight:normal;font-style:normal;font-size:10px">50</text>
<text x="15.416" y="-149.95" transform="scale(1, -1)"
	style="font-family:Times;font-weight:normal;font-style:normal;font-size:10px">200</text>
<text x="15.416" y="-241.19" transform="scale(1, -1)"
	style="font-family:Times;font-weight:normal;font-style:normal;font-size:10px">350</text>
<path d="M32.916,63.417L40.916,63.417" style="fill:none;stroke:#000000;stroke-width:0.5" />
<path d="M32.916,154.67L40.916,154.67" style="fill:none;stroke:#000000;stroke-width:0.5" />
<path d="M32.916,245.92L40.916,245.92" style="fill:none;stroke:#000000;stroke-width:0.5" />
<path d="M36.916,109.04L40.916,109.04" style="fill:none;stroke:#000000;stroke-width:0.5" />
<path d="M36.916,200.29L40.916,200.29" style="fill:none;stroke:#000000;stroke-width:0.5" />
<path d="M40.916,40.98L40.916,270.08" style="fill:none;stroke:#000000;stroke-width:0.5" />
<path d="M49.166,40.98L52.917,48.934L56.669,56.867L60.42,55.323L64.171,72.194L67.923,78.664L71.674,87.375L75.425,96.083L79.177,103.48L82.928,108.87L86.679,119.17L90.431,118.76L94.182,133.04L97.933,138.15L101.68,127.4L105.44,157.36L109.19,121.71L112.94,130.7L116.69,134.07L120.44,130.41L124.19,121.78L127.94,203.01L131.7,162.21L135.45,127.17L139.2,210.89L142.95,137.5L146.7,237.38L150.45,133.5L154.2,117.85L157.95,118.4L161.71,160.63L165.46,270.08L169.21,118.67L172.96,133.3L176.71,127.03L180.46,105.06L184.21,124.48L187.97,138.12L191.72,136.86L195.47,96.998L199.22,110.72L202.97,130.21L206.72,155.16L210.47,155.25L214.22,90.075L217.98,100.03L221.73,112.14L225.48,131L229.23,133.95L232.98,137.44L236.73,77.582L240.48,86.357L244.24,92.879L247.99,102L251.74,102.26L255.49,129.75L259.24,152.81L262.99,145.64L266.74,73.818L270.49,76.849L274.25,80.333L278,84.517L281.75,89.675L285.5,95.825" style="fill:none;stroke:#F15A60" />
<path d="M51.666,40.98A2.5,2.5 0 1 1 46.666,40.98A2.5,2.5 0 1 1 51.666,40.98Z" style="fill:none;stroke:#F15A60;stroke-width:0.5" />
<path d="M55.417,48.934A2.5,2.5 0 1 1 50.417,48.934A2.5,2.5 0 1 1 55.417,48.934Z" style="fill:none;stroke:#F15A60;stroke-width:0.5" />
<path d="M59.169,56.867A2.5,2.5 0 1 1 54.169,56.867A2.5,2.5 0 1 1 59.169,56.867Z" style="fill:none;stroke:#F15A60;stroke-width:0.5" />
<path d="M62.92,55.323A2.5,2.5 0 1 1 57.92,55.323A2.5,2.5 0 1 1 62.92,55.323Z" style="fill:none;stroke:#F15A60;stroke-width:0.5" />
<path d="M66.671,72.194A2.5,2.5 0 1 1 61.671,72.194A2.5,2.5 0 1 1 66.671,72.194Z" style="fill:none;stroke:#F15A60;stroke-width:0.5" />
<path d="M70.423,78.664A2.5,2.5 0 1 1 65.423,78.664A2.5,2.5 0 1 1 70.423,78.664Z" style="fill:none;stroke:#F15A60;stroke-width:0.5" />
<path d="M74.174,87.375A2.5,2.5 0 1 1 69.174,87.375A2.5,2.5 0 1 1 74.174,87.375Z" style="fill:none;stroke:#F15A60;stroke-width:0.5" />
<path d="M77.925,96.083A2.5,2.5 0 1 1 72.925,96.083A2.5,2.5 0 1 1 77.925,96.083Z" style="fill:none;stroke:#F15A60;stroke-width:0.5" />
<path d="M81.677,103.48A2.5,2.5 0 1 1 76.677,103.48A2.5,2.5 0 1 1 81.677,103.48Z" style="fill:none;stroke:#F15A60;stroke-width:0.5" />
<path d="M85.428,108.87A2.5,2.5 0 1 1 80.428,108.87A2.5,2.5 0 1 1 85.428,108.87Z" style="fill:none;stroke:#F15A60;stroke-width:0.5" />
<path d="M89.179,119.17A2.5,2.5 0 1 1 84.179,119.17A2.5,2.5 0 1 1 89.179,119.17Z" style="fill:none;stroke:#F15A60;stroke-width:0.5" />
<path d="M92.931,118.76A2.5,2.5 0 1 1 87.931,118.76A2.5,2.5 0 1 1 92.931,118.76Z" style="fill:none;stroke:#F15A60;stroke-width:0.5" />
<path d="M96.682,133.04A2.5,2.5 0 1 1 91.682,133.04A2.5,2.5 0 1 1 96.682,133.04Z" style="fill:none;stroke:#F15A60;stroke-width:0.5" />
<path d="M100.43,138.15A2.5,2.5 0 1 1 95.433,138.15A2.5,2.5 0 1 1 100.43,138.15Z" style="fill:none;stroke:#F15A60;stroke-width:0.5" />
<path d="M104.18,127.4A2.5,2.5 0 1 1 99.185,127.4A2.5,2.5 0 1 1 104.18,127.4Z" style="fill:none;stroke:#F15A60;stroke-width:0.5" />
<path d="M107.94,157.36A2.5,2.5 0 1 1 102.94,157.36A2.5,2.5 0 1 1 107.94,157.36Z" style="fill:none;stroke:#F15A60;stroke-width:0.5" />
<path d="M111.69,121.71A2.5,2.5 0 1 1 106.69,121.71A2.5,2.5 0 1 1 111.69,121.71Z" style="fill:none;stroke:#F15A60;stroke-width:0.5" />
<path d="M115.44,130.7A2.5,2.5 0 1 1 110.44,130.7A2.5,2.5 0 1 1 115.44,130.7Z" style="fill:none;stroke:#F15A60;stroke-width:0.5" />
<path d="M119.19,134.07A2.5,2.5 0 1 1 114.19,134.07A2.5,2.5 0 1 1 119.19,134.07Z" style="fill:none;stroke:#F15A60;stroke-width:0.5" />
<path d="M122.94,130.41A2.5,2.5 0 1 1 117.94,130.41A2.5,2.5 0 1 1 122.94,130.41Z" style="fill:none;stroke:#F15A60;stroke-width:0.5" />
<path d="M126.69,121.78A2.5,2.5 0 1 1 121.69,121.78A2.5,2.5 0 1 1 126.69,121.78Z" style="fill:none;stroke:#F15A60;stroke-width:0.5" />
<path d="M130.44,203.01A2.5,2.5 0 1 1 125.44,203.01A2.5,2.5 0 1 1 130.44,203.01Z" style="fill:none;stroke:#F15A60;stroke-width:0.5" />
<path d="M134.2,162.21A2.5,2.5 0 1 1 129.2,162.21A2.5,2.5 0 1 1 134.2,162.21Z" style="fill:none;stroke:#F15A60;stroke-width:0.5" />
<path d="M137.95,127.17A2.5,2.5 0 1 1 132.95,127.17A2.5,2.5 0 1 1 137.95,127.17Z" style="fill:none;stroke:#F15A60;stroke-width:0.5" />
<path d="M141.7,210.89A2.5,2.5 0 1 1 136.7,210.89A2.5,2.5 0 1 1 141.7,210.89Z" style="fill:none;stroke:#F15A60;stroke-width:0.5" />
<path d="M145.45,137.5A2.5,2.5 0 1 1 140.45,137.5A2.5,2.5 0 1 1 145.45,137.5Z" style="fill:none;stroke:#F15A60;stroke-width:0.5" />
<path d="M149.2,237.38A2.5,2.5 0 1 1 144.2,237.38A2.5,2.5 0 1 1 149.2,237.38Z" style="fill:none;stroke:#F15A60;stroke-width:0.5" />
<path d="M152.95,133.5A2.5,2.5 0 1 1 147.95,133.5A2.5,2.5 0 1 1 152.95,133.5Z" style="fill:none;stroke:#F15A60;stroke-width:0.5" />
<path d="M156.7,117.85A2.5,2.5 0 1 1 151.7,117.85A2.5,2.5 0 1 1 156.7,117.85Z" style="fill:none;stroke:#F15A60;stroke-width:0.5" />
<path d="M160.45,118.4A2.5,2.5 0 1 1 155.45,118.4A2.5,2.5 0 1 1 160.45,118.4Z" style="fill:none;stroke:#F15A60;stroke-width:0.5" />
<path d="M164.21,160.63A2.5,2.5 0 1 1 159.21,160.63A2.5,2.5 0 1 1 164.21,160.63Z" style="fill:none;stroke:#F15A60;stroke-width:0.5" />
<path d="M167.96,270.08A2.5,2.5 0 1 1 162.96,270.08A2.5,2.5 0 1 1 167.96,270.08Z" style="fill:none;stroke:#F15A60;stroke-width:0.5" />
<path d="M171.71,118.67A2.5,2.5 0 1 1 166.71,118.67A2.5,2.5 0 1 1 171.71,118.67Z" style="fill:none;stroke:#F15A60;stroke-width:0.5" />
<path d="M175.46,133.3A2.5,2.5 0 1 1 170.46,133.3A2.5,2.5 0 1 1 175.46,133.3Z" style="fill:none;stroke:#F15A60;stroke-width:0.5" />
<path d="M179.21,127.03A2.5,2.5 0 1 1 174.21,127.03A2.5,2.5 0 1 1 179.21,127.03Z" style="fill:none;stroke:#F15A60;stroke-width:0.5" />
<path d="M182.96,105.06A2.5,2.5 0 1 1 177.96,105.06A2.5,2.5 0 1 1 182.96,105.06Z" style="fill:none;stroke:#F15A60;stroke-width:0.5" />
<path d="M186.71,124.48A2.5,2.5 0 1 1 181.71,124.48A2.5,2.5 0 1 1 186.71,124.48Z" style="fill:none;stroke:#F15A60;stroke-width:0.5" />
<path d="M190.47,138.12A2.5,2.5 0 1 1 185.47,138.12A2.5,2.5 0 1 1 190.47,138.12Z" style="fill:none;stroke:#F15A60;stroke-width:0.5" />
<path d="M194.22,136.86A2.5,2.5 0 1 1 189.22,136.86A2.5,2.5 0 1 1 194.22,136.86Z" style="fill:none;stroke:#F15A60;stroke-width:0.5" />
<path d="M197.97,96.998A2.5,2.5 0 1 1 192.97,96.998A2.5,2.5 0 1 1 197.97,96.998Z" style="fill:none;stroke:#F15A60;stroke-width:0.5" />
<path d="M201.72,110.72A2.5,2.5 0 1 1 196.72,110.72A2.5,2.5 0 1 1 201.72,110.72Z" style="fill:none;stroke:#F15A60;stroke-width:0.5" />
<path d="M205.47,130.21A2.5,2.5 0 1 1 200.47,130.21A2.5,2.5 0 1 1 205.47,130.21Z" style="fill:none;stroke:#F15A60;stroke-width:0.5" />
<path d="M209.22,155.16A2.5,2.5 0 1 1 204.22,155.16A2.5,2.5 0 1 1 209.22,155.16Z" style="fill:none;stroke:#F15A60;stroke-width:0.5" />
<path d="M212.97,155.25A2.5,2.5 0 1 1 207.97,155.25A2.5,2.5 0 1 1 212.97,155.25Z" style="fill:none;stroke:#F15A60;stroke-width:0.5" />
<path d="M216.72,90.075A2.5,2.5 0 1 1 211.72,90.075A2.5,2.5 0 1 1 216.72,90.075Z" style="fill:none;stroke:#F15A60;stroke-width:0.5" />
<path d="M220.48,100.03A2.5,2.5 0 1 1 215.48,100.03A2.5,2.5 0 1 1 220.48,100.03Z" style="fill:none;stroke:#F15A60;stroke-width:0.5" />
<path d="M224.23,112.14A2.5,2.5 0 1 1 219.23,112.14A2.5,2.5 0 1 1 224.23,112.14Z" style="fill:none;stroke:#F15A60;stroke-width:0.5" />
<path d="M227.98,131A2.5,2.5 0 1 1 222.98,131A2.5,2.5 0 1 1 227.98,131Z" style="fill:none;stroke:#F15A60;stroke-width:0.5" />
<path d="M231.73,133.95A2.5,2.5 0 1 1 226.73,133.95A2.5,2.5 0 1 1 231.73,133.95Z" style="fill:none;stroke:#F15A60;stroke-width:0.5" />
<path d="M235.48,137.44A2.5,2.5 0 1 1 230.48,137.44A2.5,2.5 0 1 1 235.48,137.44Z" style="fill:none;stroke:#F15A60;stroke-width:0.5" />
<path d="M239.23,77.582A2.5,2.5 0 1 1 234.23,77.582A2.5,2.5 0 1 1 239.23,77.582Z" style="fill:none;stroke:#F15A60;stroke-width:0.5" />
<path d="M242.98,86.357A2.5,2.5 0 1 1 237.98,86.357A2.5,2.5 0 1 1 242.98,86.357Z" style="fill:none;stroke:#F15A60;stroke-width:0.5" />
<path d="M246.74,92.879A2.5,2.5 0 1 1 241.74,92.879A2.5,2.5 0 1 1 246.74,92.879Z" style="fill:none;stroke:#F15A60;stroke-width:0.5" />
<path d="M250.49,102A2.5,2.5 0 1 1 245.49,102A2.5,2.5 0 1 1 250.49,102Z" style="fill:none;stroke:#F15A60;stroke-width:0.5" />
<path d="M254.24,102.26A2.5,2.5 0 1 1 249.24,102.26A2.5,2.5 0 1 1 254.24,102.26Z" style="fill:none;stroke:#F15A60;stroke-width:0.5" />
<path d="M257.99,129.75A2.5,2.5 0 1 1 252.99,129.75A2.5,2.5 0 1 1 257.99,129.75Z" style="fill:none;stroke:#F15A60;stroke-width:0.5" />
<path d="M261.74,152.81A2.5,2.5 0 1 1 256.74,152.81A2.5,2.5 0 1 1 261.74,152.81Z" style="fill:none;stroke:#F15A60;stroke-width:0.5" />
<path d="M265.49,145.64A2.5,2.5 0 1 1 260.49,145.64A2.5,2.5 0 1 1 265.49,145.64Z" style="fill:none;stroke:#F15A60;stroke-width:0.5" />
<path d="M269.24,73.818A2.5,2.5 0 1 1 264.24,73.818A2.5,2.5 0 1 1 269.24,73.818Z" style="fill:none;stroke:#F15A60;stroke-width:0.5" />
<path d="M272.99,76.849A2.5,2.5 0 1 1 267.99,76.849A2.5,2.5 0 1 1 272.99,76.849Z" style="fill:none;stroke:#F15A60;stroke-width:0.5" />
<path d="M276.75,80.333A2.5,2.5 0 1 1 271.75,80.333A2.5,2.5 0 1 1 276.75,80.333Z" style="fill:none;stroke:#F15A60;stroke-width:0.5" />
<path d="M280.5,84.517A2.5,2.5 0 1 1 275.5,84.517A2.5,2.5 0 1 1 280.5,84.517Z" style="fill:none;stroke:#F15A60;stroke-width:0.5" />
<path d="M284.25,89.675A2.5,2.5 0 1 1 279.25,89.675A2.5,2.5 0 1 1 284.25,89.675Z" style="fill:none;stroke:#F15A60;stroke-width:0.5" />
<path d="M288,95.825A2.5,2.5 0 1 1 283,95.825A2.5,2.5 0 1 1 288,95.825Z" style="fill:none;stroke:#F15A60;stroke-width:0.5" />
<path d="M268,44.369L288,44.369" style="fill:none;stroke:#F15A60" />
<path d="M280.5,44.369A2.5,2.5 0 1 1 275.5,44.369A2.5,2.5 0 1 1 280.5,44.369Z" style="fill:none;stroke:#F15A60;stroke-width:0.5" />
<text x="187.02" y="-38.703" transform="scale(1, -1)"
	style="font-family:Times;font-weight:normal;font-style:normal;font-size:12px">rows per second</text>
</g>
</svg>
