<?xml version="1.0"?>
<!-- Generated by SVGo and Plotinum VG -->
<svg width="288pt" height="288pt" viewBox="0 0 288 288"
	xmlns="http://www.w3.org/2000/svg"
	xmlns:xlink="http://www.w3.org/1999/xlink">
<g transform="scale(1, -1) translate(0, -288)">
<path d="M0,0L288,0L288,288L0,288Z" style="fill:#FFFFFF" />
<text x="50.186" y="-276.45" transform="scale(1, -1)"
	style="font-family:Times;font-weight:normal;font-style:normal;font-size:12px">Scan speed, in million rows per second</text>
<text x="115.68" y="-3.8613" transform="scale(1, -1)"
	style="font-family:Times;font-weight:normal;font-style:normal;font-size:12px">number of goroutines</text>
<text x="77.928" y="-15.602" transform="scale(1, -1)"
	style="font-family:Times;font-weight:normal;font-style:normal;font-size:10px">10</text>
<text x="115.44" y="-15.602" transform="scale(1, -1)"
	style="font-family:Times;font-weight:normal;font-style:normal;font-size:10px">20</text>
<text x="152.95" y="-15.602" transform="scale(1, -1)"
	style="font-family:Times;font-weight:normal;font-style:normal;font-size:10px">30</text>
<text x="190.47" y="-15.602" transform="scale(1, -1)"
	style="font-family:Times;font-weight:normal;font-style:normal;font-size:10px">40</text>
<text x="227.98" y="-15.602" transform="scale(1, -1)"
	style="font-family:Times;font-weight:normal;font-style:normal;font-size:10px">50</text>
<text x="265.49" y="-15.602" transform="scale(1, -1)"
	style="font-family:Times;font-weight:normal;font-style:normal;font-size:10px">60</text>
<path d="M82.928,25.23L82.928,33.23" style="fill:none;stroke:#000000;stroke-width:0.5" />
<path d="M120.44,25.23L120.44,33.23" style="fill:none;stroke:#000000;stroke-width:0.5" />
<path d="M157.95,25.23L157.95,33.23" style="fill:none;stroke:#000000;stroke-width:0.5" />
<path d="M195.47,25.23L195.47,33.23" style="fill:none;stroke:#000000;stroke-width:0.5" />
<path d="M232.98,25.23L232.98,33.23" style="fill:none;stroke:#000000;stroke-width:0.5" />
<path d="M270.49,25.23L270.49,33.23" style="fill:none;stroke:#000000;stroke-width:0.5" />
<path d="M52.917,29.23L52.917,33.23" style="fill:none;stroke:#000000;stroke-width:0.5" />
<path d="M60.42,29.23L60.42,33.23" style="fill:none;stroke:#000000;stroke-width:0.5" />
<path d="M67.923,29.23L67.923,33.23" style="fill:none;stroke:#000000;stroke-width:0.5" />
<path d="M75.425,29.23L75.425,33.23" style="fill:none;stroke:#000000;stroke-width:0.5" />
<path d="M90.431,29.23L90.431,33.23" style="fill:none;stroke:#000000;stroke-width:0.5" />
<path d="M97.933,29.23L97.933,33.23" style="fill:none;stroke:#000000;stroke-width:0.5" />
<path d="M105.44,29.23L105.44,33.23" style="fill:none;stroke:#000000;stroke-width:0.5" />
<path d="M112.94,29.23L112.94,33.23" style="fill:none;stroke:#000000;stroke-width:0.5" />
<path d="M127.94,29.23L127.94,33.23" style="fill:none;stroke:#000000;stroke-width:0.5" />
<path d="M135.45,29.23L135.45,33.23" style="fill:none;stroke:#000000;stroke-width:0.5" />
<path d="M142.95,29.23L142.95,33.23" style="fill:none;stroke:#000000;stroke-width:0.5" />
<path d="M150.45,29.23L150.45,33.23" style="fill:none;stroke:#000000;stroke-width:0.5" />
<path d="M165.46,29.23L165.46,33.23" style="fill:none;stroke:#000000;stroke-width:0.5" />
<path d="M172.96,29.23L172.96,33.23" style="fill:none;stroke:#000000;stroke-width:0.5" />
<path d="M180.46,29.23L180.46,33.23" style="fill:none;stroke:#000000;stroke-width:0.5" />
<path d="M187.97,29.23L187.97,33.23" style="fill:none;stroke:#000000;stroke-width:0.5" />
<path d="M202.97,29.23L202.97,33.23" style="fill:none;stroke:#000000;stroke-width:0.5" />
<path d="M210.47,29.23L210.47,33.23" style="fill:none;stroke:#000000;stroke-width:0.5" />
<path d="M217.98,29.23L217.98,33.23" style="fill:none;stroke:#000000;stroke-width:0.5" />
<path d="M225.48,29.23L225.48,33.23" style="fill:none;stroke:#000000;stroke-width:0.5" />
<path d="M240.48,29.23L240.48,33.23" style="fill:none;stroke:#000000;stroke-width:0.5" />
<path d="M247.99,29.23L247.99,33.23" style="fill:none;stroke:#000000;stroke-width:0.5" />
<path d="M255.49,29.23L255.49,33.23" style="fill:none;stroke:#000000;stroke-width:0.5" />
<path d="M262.99,29.23L262.99,33.23" style="fill:none;stroke:#000000;stroke-width:0.5" />
<path d="M278,29.23L278,33.23" style="fill:none;stroke:#000000;stroke-width:0.5" />
<path d="M285.5,29.23L285.5,33.23" style="fill:none;stroke:#000000;stroke-width:0.5" />
<path d="M49.166,33.23L285.5,33.23" style="fill:none;stroke:#000000;stroke-width:0.5" />
<g transform="rotate(90)">
<text x="148.2" y="11.555" transform="scale(1, -1)"
	style="font-family:Times;font-weight:normal;font-style:normal;font-size:12px">rps</text>
</g>
<text x="20.416" y="-46.802" transform="scale(1, -1)"
	style="font-family:Times;font-weight:normal;font-style:normal;font-size:10px">50</text>
<text x="15.416" y="-116.68" transform="scale(1, -1)"
	style="font-family:Times;font-weight:normal;font-style:normal;font-size:10px">250</text>
<text x="15.416" y="-186.57" transform="scale(1, -1)"
	style="font-family:Times;font-weight:normal;font-style:normal;font-size:10px">450</text>
<text x="15.416" y="-256.45" transform="scale(1, -1)"
	style="font-family:Times;font-weight:normal;font-style:normal;font-size:10px">650</text>
<path d="M32.916,51.523L40.916,51.523" style="fill:none;stroke:#000000;stroke-width:0.5" />
<path d="M32.916,121.41L40.916,121.41" style="fill:none;stroke:#000000;stroke-width:0.5" />
<path d="M32.916,191.29L40.916,191.29" style="fill:none;stroke:#000000;stroke-width:0.5" />
<path d="M32.916,261.17L40.916,261.17" style="fill:none;stroke:#000000;stroke-width:0.5" />
<path d="M36.916,86.465L40.916,86.465" style="fill:none;stroke:#000000;stroke-width:0.5" />
<path d="M36.916,156.35L40.916,156.35" style="fill:none;stroke:#000000;stroke-width:0.5" />
<path d="M36.916,226.23L40.916,226.23" style="fill:none;stroke:#000000;stroke-width:0.5" />
<path d="M40.916,40.98L40.916,270.08" style="fill:none;stroke:#000000;stroke-width:0.5" />
<path d="M49.166,44.954L52.917,55.83L56.669,45.44L60.42,47.966L64.171,87.658L67.923,96.381L71.674,108.51L75.425,120.45L79.177,130.95L82.928,139.55L86.679,153.17L90.431,152.35L94.182,174.05L97.933,179.76L101.68,164.91L105.44,204.44L109.19,155.97L112.94,169.09L116.69,173.43L120.44,168.51L124.19,155.86L127.94,270.08L131.7,212.68L135.45,164.01L139.2,268.59L142.95,172.04L146.7,124.02L150.45,128.21L154.2,119.39L157.95,128.43L161.71,100.22L165.46,140.41L169.21,104.97L172.96,144.14L176.71,156.51L180.46,115.45L184.21,112.2L187.97,112.59L191.72,145.3L195.47,116.1L199.22,133.23L202.97,156.53L206.72,151.25L210.47,165.28L214.22,108.12L217.98,118.69L221.73,137.82L225.48,96.873L229.23,173.84L232.98,142.86L236.73,98.433L240.48,104.16L244.24,112.47L247.99,66.561L251.74,63.54L255.49,48.077L259.24,46.554L262.99,47.96L266.74,43.053L270.49,42.463L274.25,42.126L278,40.98L281.75,41.087L285.5,41.131" style="fill:none;stroke:#F15A60" />
<path d="M51.666,44.954A2.5,2.5 0 1 1 46.666,44.954A2.5,2.5 0 1 1 51.666,44.954Z" style="fill:none;stroke:#F15A60;stroke-width:0.5" />
<path d="M55.417,55.83A2.5,2.5 0 1 1 50.417,55.83A2.5,2.5 0 1 1 55.417,55.83Z" style="fill:none;stroke:#F15A60;stroke-width:0.5" />
<path d="M59.169,45.44A2.5,2.5 0 1 1 54.169,45.44A2.5,2.5 0 1 1 59.169,45.44Z" style="fill:none;stroke:#F15A60;stroke-width:0.5" />
<path d="M62.92,47.966A2.5,2.5 0 1 1 57.92,47.966A2.5,2.5 0 1 1 62.92,47.966Z" style="fill:none;stroke:#F15A60;stroke-width:0.5" />
<path d="M66.671,87.658A2.5,2.5 0 1 1 61.671,87.658A2.5,2.5 0 1 1 66.671,87.658Z" style="fill:none;stroke:#F15A60;stroke-width:0.5" />
<path d="M70.423,96.381A2.5,2.5 0 1 1 65.423,96.381A2.5,2.5 0 1 1 70.423,96.381Z" style="fill:none;stroke:#F15A60;stroke-width:0.5" />
<path d="M74.174,108.51A2.5,2.5 0 1 1 69.174,108.51A2.5,2.5 0 1 1 74.174,108.51Z" style="fill:none;stroke:#F15A60;stroke-width:0.5" />
<path d="M77.925,120.45A2.5,2.5 0 1 1 72.925,120.45A2.5,2.5 0 1 1 77.925,120.45Z" style="fill:none;stroke:#F15A60;stroke-width:0.5" />
<path d="M81.677,130.95A2.5,2.5 0 1 1 76.677,130.95A2.5,2.5 0 1 1 81.677,130.95Z" style="fill:none;stroke:#F15A60;stroke-width:0.5" />
<path d="M85.428,139.55A2.5,2.5 0 1 1 80.428,139.55A2.5,2.5 0 1 1 85.428,139.55Z" style="fill:none;stroke:#F15A60;stroke-width:0.5" />
<path d="M89.179,153.17A2.5,2.5 0 1 1 84.179,153.17A2.5,2.5 0 1 1 89.179,153.17Z" style="fill:none;stroke:#F15A60;stroke-width:0.5" />
<path d="M92.931,152.35A2.5,2.5 0 1 1 87.931,152.35A2.5,2.5 0 1 1 92.931,152.35Z" style="fill:none;stroke:#F15A60;stroke-width:0.5" />
<path d="M96.682,174.05A2.5,2.5 0 1 1 91.682,174.05A2.5,2.5 0 1 1 96.682,174.05Z" style="fill:none;stroke:#F15A60;stroke-width:0.5" />
<path d="M100.43,179.76A2.5,2.5 0 1 1 95.433,179.76A2.5,2.5 0 1 1 100.43,179.76Z" style="fill:none;stroke:#F15A60;stroke-width:0.5" />
<path d="M104.18,164.91A2.5,2.5 0 1 1 99.185,164.91A2.5,2.5 0 1 1 104.18,164.91Z" style="fill:none;stroke:#F15A60;stroke-width:0.5" />
<path d="M107.94,204.44A2.5,2.5 0 1 1 102.94,204.44A2.5,2.5 0 1 1 107.94,204.44Z" style="fill:none;stroke:#F15A60;stroke-width:0.5" />
<path d="M111.69,155.97A2.5,2.5 0 1 1 106.69,155.97A2.5,2.5 0 1 1 111.69,155.97Z" style="fill:none;stroke:#F15A60;stroke-width:0.5" />
<path d="M115.44,169.09A2.5,2.5 0 1 1 110.44,169.09A2.5,2.5 0 1 1 115.44,169.09Z" style="fill:none;stroke:#F15A60;stroke-width:0.5" />
<path d="M119.19,173.43A2.5,2.5 0 1 1 114.19,173.43A2.5,2.5 0 1 1 119.19,173.43Z" style="fill:none;stroke:#F15A60;stroke-width:0.5" />
<path d="M122.94,168.51A2.5,2.5 0 1 1 117.94,168.51A2.5,2.5 0 1 1 122.94,168.51Z" style="fill:none;stroke:#F15A60;stroke-width:0.5" />
<path d="M126.69,155.86A2.5,2.5 0 1 1 121.69,155.86A2.5,2.5 0 1 1 126.69,155.86Z" style="fill:none;stroke:#F15A60;stroke-width:0.5" />
<path d="M130.44,270.08A2.5,2.5 0 1 1 125.44,270.08A2.5,2.5 0 1 1 130.44,270.08Z" style="fill:none;stroke:#F15A60;stroke-width:0.5" />
<path d="M134.2,212.68A2.5,2.5 0 1 1 129.2,212.68A2.5,2.5 0 1 1 134.2,212.68Z" style="fill:none;stroke:#F15A60;stroke-width:0.5" />
<path d="M137.95,164.01A2.5,2.5 0 1 1 132.95,164.01A2.5,2.5 0 1 1 137.95,164.01Z" style="fill:none;stroke:#F15A60;stroke-width:0.5" />
<path d="M141.7,268.59A2.5,2.5 0 1 1 136.7,268.59A2.5,2.5 0 1 1 141.7,268.59Z" style="fill:none;stroke:#F15A60;stroke-width:0.5" />
<path d="M145.45,172.04A2.5,2.5 0 1 1 140.45,172.04A2.5,2.5 0 1 1 145.45,172.04Z" style="fill:none;stroke:#F15A60;stroke-width:0.5" />
<path d="M149.2,124.02A2.5,2.5 0 1 1 144.2,124.02A2.5,2.5 0 1 1 149.2,124.02Z" style="fill:none;stroke:#F15A60;stroke-width:0.5" />
<path d="M152.95,128.21A2.5,2.5 0 1 1 147.95,128.21A2.5,2.5 0 1 1 152.95,128.21Z" style="fill:none;stroke:#F15A60;stroke-width:0.5" />
<path d="M156.7,119.39A2.5,2.5 0 1 1 151.7,119.39A2.5,2.5 0 1 1 156.7,119.39Z" style="fill:none;stroke:#F15A60;stroke-width:0.5" />
<path d="M160.45,128.43A2.5,2.5 0 1 1 155.45,128.43A2.5,2.5 0 1 1 160.45,128.43Z" style="fill:none;stroke:#F15A60;stroke-width:0.5" />
<path d="M164.21,100.22A2.5,2.5 0 1 1 159.21,100.22A2.5,2.5 0 1 1 164.21,100.22Z" style="fill:none;stroke:#F15A60;stroke-width:0.5" />
<path d="M167.96,140.41A2.5,2.5 0 1 1 162.96,140.41A2.5,2.5 0 1 1 167.96,140.41Z" style="fill:none;stroke:#F15A60;stroke-width:0.5" />
<path d="M171.71,104.97A2.5,2.5 0 1 1 166.71,104.97A2.5,2.5 0 1 1 171.71,104.97Z" style="fill:none;stroke:#F15A60;stroke-width:0.5" />
<path d="M175.46,144.14A2.5,2.5 0 1 1 170.46,144.14A2.5,2.5 0 1 1 175.46,144.14Z" style="fill:none;stroke:#F15A60;stroke-width:0.5" />
<path d="M179.21,156.51A2.5,2.5 0 1 1 174.21,156.51A2.5,2.5 0 1 1 179.21,156.51Z" style="fill:none;stroke:#F15A60;stroke-width:0.5" />
<path d="M182.96,115.45A2.5,2.5 0 1 1 177.96,115.45A2.5,2.5 0 1 1 182.96,115.45Z" style="fill:none;stroke:#F15A60;stroke-width:0.5" />
<path d="M186.71,112.2A2.5,2.5 0 1 1 181.71,112.2A2.5,2.5 0 1 1 186.71,112.2Z" style="fill:none;stroke:#F15A60;stroke-width:0.5" />
<path d="M190.47,112.59A2.5,2.5 0 1 1 185.47,112.59A2.5,2.5 0 1 1 190.47,112.59Z" style="fill:none;stroke:#F15A60;stroke-width:0.5" />
<path d="M194.22,145.3A2.5,2.5 0 1 1 189.22,145.3A2.5,2.5 0 1 1 194.22,145.3Z" style="fill:none;stroke:#F15A60;stroke-width:0.5" />
<path d="M197.97,116.1A2.5,2.5 0 1 1 192.97,116.1A2.5,2.5 0 1 1 197.97,116.1Z" style="fill:none;stroke:#F15A60;stroke-width:0.5" />
<path d="M201.72,133.23A2.5,2.5 0 1 1 196.72,133.23A2.5,2.5 0 1 1 201.72,133.23Z" style="fill:none;stroke:#F15A60;stroke-width:0.5" />
<path d="M205.47,156.53A2.5,2.5 0 1 1 200.47,156.53A2.5,2.5 0 1 1 205.47,156.53Z" style="fill:none;stroke:#F15A60;stroke-width:0.5" />
<path d="M209.22,151.25A2.5,2.5 0 1 1 204.22,151.25A2.5,2.5 0 1 1 209.22,151.25Z" style="fill:none;stroke:#F15A60;stroke-width:0.5" />
<path d="M212.97,165.28A2.5,2.5 0 1 1 207.97,165.28A2.5,2.5 0 1 1 212.97,165.28Z" style="fill:none;stroke:#F15A60;stroke-width:0.5" />
<path d="M216.72,108.12A2.5,2.5 0 1 1 211.72,108.12A2.5,2.5 0 1 1 216.72,108.12Z" style="fill:none;stroke:#F15A60;stroke-width:0.5" />
<path d="M220.48,118.69A2.5,2.5 0 1 1 215.48,118.69A2.5,2.5 0 1 1 220.48,118.69Z" style="fill:none;stroke:#F15A60;stroke-width:0.5" />
<path d="M224.23,137.82A2.5,2.5 0 1 1 219.23,137.82A2.5,2.5 0 1 1 224.23,137.82Z" style="fill:none;stroke:#F15A60;stroke-width:0.5" />
<path d="M227.98,96.873A2.5,2.5 0 1 1 222.98,96.873A2.5,2.5 0 1 1 227.98,96.873Z" style="fill:none;stroke:#F15A60;stroke-width:0.5" />
<path d="M231.73,173.84A2.5,2.5 0 1 1 226.73,173.84A2.5,2.5 0 1 1 231.73,173.84Z" style="fill:none;stroke:#F15A60;stroke-width:0.5" />
<path d="M235.48,142.86A2.5,2.5 0 1 1 230.48,142.86A2.5,2.5 0 1 1 235.48,142.86Z" style="fill:none;stroke:#F15A60;stroke-width:0.5" />
<path d="M239.23,98.433A2.5,2.5 0 1 1 234.23,98.433A2.5,2.5 0 1 1 239.23,98.433Z" style="fill:none;stroke:#F15A60;stroke-width:0.5" />
<path d="M242.98,104.16A2.5,2.5 0 1 1 237.98,104.16A2.5,2.5 0 1 1 242.98,104.16Z" style="fill:none;stroke:#F15A60;stroke-width:0.5" />
<path d="M246.74,112.47A2.5,2.5 0 1 1 241.74,112.47A2.5,2.5 0 1 1 246.74,112.47Z" style="fill:none;stroke:#F15A60;stroke-width:0.5" />
<path d="M250.49,66.561A2.5,2.5 0 1 1 245.49,66.561A2.5,2.5 0 1 1 250.49,66.561Z" style="fill:none;stroke:#F15A60;stroke-width:0.5" />
<path d="M254.24,63.54A2.5,2.5 0 1 1 249.24,63.54A2.5,2.5 0 1 1 254.24,63.54Z" style="fill:none;stroke:#F15A60;stroke-width:0.5" />
<path d="M257.99,48.077A2.5,2.5 0 1 1 252.99,48.077A2.5,2.5 0 1 1 257.99,48.077Z" style="fill:none;stroke:#F15A60;stroke-width:0.5" />
<path d="M261.74,46.554A2.5,2.5 0 1 1 256.74,46.554A2.5,2.5 0 1 1 261.74,46.554Z" style="fill:none;stroke:#F15A60;stroke-width:0.5" />
<path d="M265.49,47.96A2.5,2.5 0 1 1 260.49,47.96A2.5,2.5 0 1 1 265.49,47.96Z" style="fill:none;stroke:#F15A60;stroke-width:0.5" />
<path d="M269.24,43.053A2.5,2.5 0 1 1 264.24,43.053A2.5,2.5 0 1 1 269.24,43.053Z" style="fill:none;stroke:#F15A60;stroke-width:0.5" />
<path d="M272.99,42.463A2.5,2.5 0 1 1 267.99,42.463A2.5,2.5 0 1 1 272.99,42.463Z" style="fill:none;stroke:#F15A60;stroke-width:0.5" />
<path d="M276.75,42.126A2.5,2.5 0 1 1 271.75,42.126A2.5,2.5 0 1 1 276.75,42.126Z" style="fill:none;stroke:#F15A60;stroke-width:0.5" />
<path d="M280.5,40.98A2.5,2.5 0 1 1 275.5,40.98A2.5,2.5 0 1 1 280.5,40.98Z" style="fill:none;stroke:#F15A60;stroke-width:0.5" />
<path d="M284.25,41.087A2.5,2.5 0 1 1 279.25,41.087A2.5,2.5 0 1 1 284.25,41.087Z" style="fill:none;stroke:#F15A60;stroke-width:0.5" />
<path d="M288,41.131A2.5,2.5 0 1 1 283,41.131A2.5,2.5 0 1 1 288,41.131Z" style="fill:none;stroke:#F15A60;stroke-width:0.5" />
<path d="M268,44.369L288,44.369" style="fill:none;stroke:#F15A60" />
<path d="M280.5,44.369A2.5,2.5 0 1 1 275.5,44.369A2.5,2.5 0 1 1 280.5,44.369Z" style="fill:none;stroke:#F15A60;stroke-width:0.5" />
<text x="187.02" y="-38.703" transform="scale(1, -1)"
	style="font-family:Times;font-weight:normal;font-style:normal;font-size:12px">rows per second</text>
</g>
</svg>
