<?xml version="1.0"?>
<!-- Generated by SVGo and Plotinum VG -->
<svg width="288pt" height="288pt" viewBox="0 0 288 288"
	xmlns="http://www.w3.org/2000/svg"
	xmlns:xlink="http://www.w3.org/1999/xlink">
<g transform="scale(1, -1) translate(0, -288)">
<path d="M0,0L288,0L288,288L0,288Z" style="fill:#FFFFFF" />
<text x="50.186" y="-276.45" transform="scale(1, -1)"
	style="font-family:Times;font-weight:normal;font-style:normal;font-size:12px">Scan speed, in million rows per second</text>
<text x="115.68" y="-3.8613" transform="scale(1, -1)"
	style="font-family:Times;font-weight:normal;font-style:normal;font-size:12px">number of goroutines</text>
<text x="66.556" y="-15.602" transform="scale(1, -1)"
	style="font-family:Times;font-weight:normal;font-style:normal;font-size:10px">10</text>
<text x="166.06" y="-15.602" transform="scale(1, -1)"
	style="font-family:Times;font-weight:normal;font-style:normal;font-size:10px">50</text>
<text x="265.57" y="-15.602" transform="scale(1, -1)"
	style="font-family:Times;font-weight:normal;font-style:normal;font-size:10px">90</text>
<path d="M71.556,25.23L71.556,33.23" style="fill:none;stroke:#000000;stroke-width:0.5" />
<path d="M171.06,25.23L171.06,33.23" style="fill:none;stroke:#000000;stroke-width:0.5" />
<path d="M270.57,25.23L270.57,33.23" style="fill:none;stroke:#000000;stroke-width:0.5" />
<path d="M96.433,29.23L96.433,33.23" style="fill:none;stroke:#000000;stroke-width:0.5" />
<path d="M121.31,29.23L121.31,33.23" style="fill:none;stroke:#000000;stroke-width:0.5" />
<path d="M146.19,29.23L146.19,33.23" style="fill:none;stroke:#000000;stroke-width:0.5" />
<path d="M195.94,29.23L195.94,33.23" style="fill:none;stroke:#000000;stroke-width:0.5" />
<path d="M220.82,29.23L220.82,33.23" style="fill:none;stroke:#000000;stroke-width:0.5" />
<path d="M245.7,29.23L245.7,33.23" style="fill:none;stroke:#000000;stroke-width:0.5" />
<path d="M49.166,33.23L285.5,33.23" style="fill:none;stroke:#000000;stroke-width:0.5" />
<g transform="rotate(90)">
<text x="148.12" y="11.555" transform="scale(1, -1)"
	style="font-family:Times;font-weight:normal;font-style:normal;font-size:12px">rps</text>
</g>
<text x="15.416" y="-58.828" transform="scale(1, -1)"
	style="font-family:Times;font-weight:normal;font-style:normal;font-size:10px">100</text>
<text x="15.416" y="-160.89" transform="scale(1, -1)"
	style="font-family:Times;font-weight:normal;font-style:normal;font-size:10px">400</text>
<text x="15.416" y="-262.96" transform="scale(1, -1)"
	style="font-family:Times;font-weight:normal;font-style:normal;font-size:10px">700</text>
<path d="M32.916,63.55L40.916,63.55" style="fill:none;stroke:#000000;stroke-width:0.5" />
<path d="M32.916,165.61L40.916,165.61" style="fill:none;stroke:#000000;stroke-width:0.5" />
<path d="M32.916,267.68L40.916,267.68" style="fill:none;stroke:#000000;stroke-width:0.5" />
<path d="M36.916,97.571L40.916,97.571" style="fill:none;stroke:#000000;stroke-width:0.5" />
<path d="M36.916,131.59L40.916,131.59" style="fill:none;stroke:#000000;stroke-width:0.5" />
<path d="M36.916,199.63L40.916,199.63" style="fill:none;stroke:#000000;stroke-width:0.5" />
<path d="M36.916,233.66L40.916,233.66" style="fill:none;stroke:#000000;stroke-width:0.5" />
<path d="M40.916,40.98L40.916,269.92" style="fill:none;stroke:#000000;stroke-width:0.5" />
<path d="M49.166,40.98L51.654,52.246L54.141,60.617L56.629,42.117L59.117,82.241L61.605,92.795L64.092,102.7L66.58,110.15L69.068,121.32L71.556,129.36L74.043,129.78L76.531,141.85L79.019,159.13L81.506,166.01L83.994,154.33L86.482,154.57L88.97,178.48L91.457,197.23L93.945,204.35L96.433,209.39L98.921,190.96L101.41,168.03L103.9,193.13L106.38,220.48L108.87,245.89L111.36,265.11L113.85,269.92L116.33,269.55L118.82,237.5L121.31,211.18L123.8,148.63L126.29,157.74L128.77,121.71L131.26,118.95L133.75,130.55L136.24,114.45L138.72,101.28L141.21,118L143.7,127.17L146.19,139.35L148.68,140.22L151.16,118.56L153.65,140.84L156.14,126.72L158.63,125.47L161.11,123.01L163.6,110.99L166.09,79.272L168.58,110.73L171.06,129.43L173.55,135.99L176.04,157.11L178.53,148.42L181.02,144.92L183.5,132.24L185.99,148.31L188.48,121.44L190.97,158.89L193.45,117.94L195.94,131.37L198.43,123.82L200.92,171.93L203.41,124.63L205.89,109.05L208.38,120.35L210.87,121.38L213.36,143.37L215.84,144.33L218.33,159L220.82,162.07L223.31,109.34L225.79,114.73L228.28,119.29L230.77,132.11L233.26,123.45L235.75,138.24L238.23,168.87L240.72,149.19L243.21,105.94L245.7,108.91L248.18,112.64L250.67,124.17L253.16,128.58L255.65,149.14L258.14,162.57L260.62,176.85L263.11,124.3L265.6,96.642L268.09,99.264L270.57,97.872L273.06,103.07L275.55,115.9L278.04,121.16L280.52,124.14L283.01,130.67L285.5,146.68" style="fill:none;stroke:#F15A60" />
<path d="M51.666,40.98A2.5,2.5 0 1 1 46.666,40.98A2.5,2.5 0 1 1 51.666,40.98Z" style="fill:none;stroke:#F15A60;stroke-width:0.5" />
<path d="M54.154,52.246A2.5,2.5 0 1 1 49.154,52.246A2.5,2.5 0 1 1 54.154,52.246Z" style="fill:none;stroke:#F15A60;stroke-width:0.5" />
<path d="M56.641,60.617A2.5,2.5 0 1 1 51.641,60.617A2.5,2.5 0 1 1 56.641,60.617Z" style="fill:none;stroke:#F15A60;stroke-width:0.5" />
<path d="M59.129,42.117A2.5,2.5 0 1 1 54.129,42.117A2.5,2.5 0 1 1 59.129,42.117Z" style="fill:none;stroke:#F15A60;stroke-width:0.5" />
<path d="M61.617,82.241A2.5,2.5 0 1 1 56.617,82.241A2.5,2.5 0 1 1 61.617,82.241Z" style="fill:none;stroke:#F15A60;stroke-width:0.5" />
<path d="M64.105,92.795A2.5,2.5 0 1 1 59.105,92.795A2.5,2.5 0 1 1 64.105,92.795Z" style="fill:none;stroke:#F15A60;stroke-width:0.5" />
<path d="M66.592,102.7A2.5,2.5 0 1 1 61.592,102.7A2.5,2.5 0 1 1 66.592,102.7Z" style="fill:none;stroke:#F15A60;stroke-width:0.5" />
<path d="M69.08,110.15A2.5,2.5 0 1 1 64.08,110.15A2.5,2.5 0 1 1 69.08,110.15Z" style="fill:none;stroke:#F15A60;stroke-width:0.5" />
<path d="M71.568,121.32A2.5,2.5 0 1 1 66.568,121.32A2.5,2.5 0 1 1 71.568,121.32Z" style="fill:none;stroke:#F15A60;stroke-width:0.5" />
<path d="M74.056,129.36A2.5,2.5 0 1 1 69.056,129.36A2.5,2.5 0 1 1 74.056,129.36Z" style="fill:none;stroke:#F15A60;stroke-width:0.5" />
<path d="M76.543,129.78A2.5,2.5 0 1 1 71.543,129.78A2.5,2.5 0 1 1 76.543,129.78Z" style="fill:none;stroke:#F15A60;stroke-width:0.5" />
<path d="M79.031,141.85A2.5,2.5 0 1 1 74.031,141.85A2.5,2.5 0 1 1 79.031,141.85Z" style="fill:none;stroke:#F15A60;stroke-width:0.5" />
<path d="M81.519,159.13A2.5,2.5 0 1 1 76.519,159.13A2.5,2.5 0 1 1 81.519,159.13Z" style="fill:none;stroke:#F15A60;stroke-width:0.5" />
<path d="M84.006,166.01A2.5,2.5 0 1 1 79.006,166.01A2.5,2.5 0 1 1 84.006,166.01Z" style="fill:none;stroke:#F15A60;stroke-width:0.5" />
<path d="M86.494,154.33A2.5,2.5 0 1 1 81.494,154.33A2.5,2.5 0 1 1 86.494,154.33Z" style="fill:none;stroke:#F15A60;stroke-width:0.5" />
<path d="M88.982,154.57A2.5,2.5 0 1 1 83.982,154.57A2.5,2.5 0 1 1 88.982,154.57Z" style="fill:none;stroke:#F15A60;stroke-width:0.5" />
<path d="M91.47,178.48A2.5,2.5 0 1 1 86.47,178.48A2.5,2.5 0 1 1 91.47,178.48Z" style="fill:none;stroke:#F15A60;stroke-width:0.5" />
<path d="M93.957,197.23A2.5,2.5 0 1 1 88.957,197.23A2.5,2.5 0 1 1 93.957,197.23Z" style="fill:none;stroke:#F15A60;stroke-width:0.5" />
<path d="M96.445,204.35A2.5,2.5 0 1 1 91.445,204.35A2.5,2.5 0 1 1 96.445,204.35Z" style="fill:none;stroke:#F15A60;stroke-width:0.5" />
<path d="M98.933,209.39A2.5,2.5 0 1 1 93.933,209.39A2.5,2.5 0 1 1 98.933,209.39Z" style="fill:none;stroke:#F15A60;stroke-width:0.5" />
<path d="M101.42,190.96A2.5,2.5 0 1 1 96.421,190.96A2.5,2.5 0 1 1 101.42,190.96Z" style="fill:none;stroke:#F15A60;stroke-width:0.5" />
<path d="M103.91,168.03A2.5,2.5 0 1 1 98.908,168.03A2.5,2.5 0 1 1 103.91,168.03Z" style="fill:none;stroke:#F15A60;stroke-width:0.5" />
<path d="M106.4,193.13A2.5,2.5 0 1 1 101.4,193.13A2.5,2.5 0 1 1 106.4,193.13Z" style="fill:none;stroke:#F15A60;stroke-width:0.5" />
<path d="M108.88,220.48A2.5,2.5 0 1 1 103.88,220.48A2.5,2.5 0 1 1 108.88,220.48Z" style="fill:none;stroke:#F15A60;stroke-width:0.5" />
<path d="M111.37,245.89A2.5,2.5 0 1 1 106.37,245.89A2.5,2.5 0 1 1 111.37,245.89Z" style="fill:none;stroke:#F15A60;stroke-width:0.5" />
<path d="M113.86,265.11A2.5,2.5 0 1 1 108.86,265.11A2.5,2.5 0 1 1 113.86,265.11Z" style="fill:none;stroke:#F15A60;stroke-width:0.5" />
<path d="M116.35,269.92A2.5,2.5 0 1 1 111.35,269.92A2.5,2.5 0 1 1 116.35,269.92Z" style="fill:none;stroke:#F15A60;stroke-width:0.5" />
<path d="M118.83,269.55A2.5,2.5 0 1 1 113.83,269.55A2.5,2.5 0 1 1 118.83,269.55Z" style="fill:none;stroke:#F15A60;stroke-width:0.5" />
<path d="M121.32,237.5A2.5,2.5 0 1 1 116.32,237.5A2.5,2.5 0 1 1 121.32,237.5Z" style="fill:none;stroke:#F15A60;stroke-width:0.5" />
<path d="M123.81,211.18A2.5,2.5 0 1 1 118.81,211.18A2.5,2.5 0 1 1 123.81,211.18Z" style="fill:none;stroke:#F15A60;stroke-width:0.5" />
<path d="M126.3,148.63A2.5,2.5 0 1 1 121.3,148.63A2.5,2.5 0 1 1 126.3,148.63Z" style="fill:none;stroke:#F15A60;stroke-width:0.5" />
<path d="M128.79,157.74A2.5,2.5 0 1 1 123.79,157.74A2.5,2.5 0 1 1 128.79,157.74Z" style="fill:none;stroke:#F15A60;stroke-width:0.5" />
<path d="M131.27,121.71A2.5,2.5 0 1 1 126.27,121.71A2.5,2.5 0 1 1 131.27,121.71Z" style="fill:none;stroke:#F15A60;stroke-width:0.5" />
<path d="M133.76,118.95A2.5,2.5 0 1 1 128.76,118.95A2.5,2.5 0 1 1 133.76,118.95Z" style="fill:none;stroke:#F15A60;stroke-width:0.5" />
<path d="M136.25,130.55A2.5,2.5 0 1 1 131.25,130.55A2.5,2.5 0 1 1 136.25,130.55Z" style="fill:none;stroke:#F15A60;stroke-width:0.5" />
<path d="M138.74,114.45A2.5,2.5 0 1 1 133.74,114.45A2.5,2.5 0 1 1 138.74,114.45Z" style="fill:none;stroke:#F15A60;stroke-width:0.5" />
<path d="M141.22,101.28A2.5,2.5 0 1 1 136.22,101.28A2.5,2.5 0 1 1 141.22,101.28Z" style="fill:none;stroke:#F15A60;stroke-width:0.5" />
<path d="M143.71,118A2.5,2.5 0 1 1 138.71,118A2.5,2.5 0 1 1 143.71,118Z" style="fill:none;stroke:#F15A60;stroke-width:0.5" />
<path d="M146.2,127.17A2.5,2.5 0 1 1 141.2,127.17A2.5,2.5 0 1 1 146.2,127.17Z" style="fill:none;stroke:#F15A60;stroke-width:0.5" />
<path d="M148.69,139.35A2.5,2.5 0 1 1 143.69,139.35A2.5,2.5 0 1 1 148.69,139.35Z" style="fill:none;stroke:#F15A60;stroke-width:0.5" />
<path d="M151.18,140.22A2.5,2.5 0 1 1 146.18,140.22A2.5,2.5 0 1 1 151.18,140.22Z" style="fill:none;stroke:#F15A60;stroke-width:0.5" />
<path d="M153.66,118.56A2.5,2.5 0 1 1 148.66,118.56A2.5,2.5 0 1 1 153.66,118.56Z" style="fill:none;stroke:#F15A60;stroke-width:0.5" />
<path d="M156.15,140.84A2.5,2.5 0 1 1 151.15,140.84A2.5,2.5 0 1 1 156.15,140.84Z" style="fill:none;stroke:#F15A60;stroke-width:0.5" />
<path d="M158.64,126.72A2.5,2.5 0 1 1 153.64,126.72A2.5,2.5 0 1 1 158.64,126.72Z" style="fill:none;stroke:#F15A60;stroke-width:0.5" />
<path d="M161.13,125.47A2.5,2.5 0 1 1 156.13,125.47A2.5,2.5 0 1 1 161.13,125.47Z" style="fill:none;stroke:#F15A60;stroke-width:0.5" />
<path d="M163.61,123.01A2.5,2.5 0 1 1 158.61,123.01A2.5,2.5 0 1 1 163.61,123.01Z" style="fill:none;stroke:#F15A60;stroke-width:0.5" />
<path d="M166.1,110.99A2.5,2.5 0 1 1 161.1,110.99A2.5,2.5 0 1 1 166.1,110.99Z" style="fill:none;stroke:#F15A60;stroke-width:0.5" />
<path d="M168.59,79.272A2.5,2.5 0 1 1 163.59,79.272A2.5,2.5 0 1 1 168.59,79.272Z" style="fill:none;stroke:#F15A60;stroke-width:0.5" />
<path d="M171.08,110.73A2.5,2.5 0 1 1 166.08,110.73A2.5,2.5 0 1 1 171.08,110.73Z" style="fill:none;stroke:#F15A60;stroke-width:0.5" />
<path d="M173.56,129.43A2.5,2.5 0 1 1 168.56,129.43A2.5,2.5 0 1 1 173.56,129.43Z" style="fill:none;stroke:#F15A60;stroke-width:0.5" />
<path d="M176.05,135.99A2.5,2.5 0 1 1 171.05,135.99A2.5,2.5 0 1 1 176.05,135.99Z" style="fill:none;stroke:#F15A60;stroke-width:0.5" />
<path d="M178.54,157.11A2.5,2.5 0 1 1 173.54,157.11A2.5,2.5 0 1 1 178.54,157.11Z" style="fill:none;stroke:#F15A60;stroke-width:0.5" />
<path d="M181.03,148.42A2.5,2.5 0 1 1 176.03,148.42A2.5,2.5 0 1 1 181.03,148.42Z" style="fill:none;stroke:#F15A60;stroke-width:0.5" />
<path d="M183.52,144.92A2.5,2.5 0 1 1 178.52,144.92A2.5,2.5 0 1 1 183.52,144.92Z" style="fill:none;stroke:#F15A60;stroke-width:0.5" />
<path d="M186,132.24A2.5,2.5 0 1 1 181,132.24A2.5,2.5 0 1 1 186,132.24Z" style="fill:none;stroke:#F15A60;stroke-width:0.5" />
<path d="M188.49,148.31A2.5,2.5 0 1 1 183.49,148.31A2.5,2.5 0 1 1 188.49,148.31Z" style="fill:none;stroke:#F15A60;stroke-width:0.5" />
<path d="M190.98,121.44A2.5,2.5 0 1 1 185.98,121.44A2.5,2.5 0 1 1 190.98,121.44Z" style="fill:none;stroke:#F15A60;stroke-width:0.5" />
<path d="M193.47,158.89A2.5,2.5 0 1 1 188.47,158.89A2.5,2.5 0 1 1 193.47,158.89Z" style="fill:none;stroke:#F15A60;stroke-width:0.5" />
<path d="M195.95,117.94A2.5,2.5 0 1 1 190.95,117.94A2.5,2.5 0 1 1 195.95,117.94Z" style="fill:none;stroke:#F15A60;stroke-width:0.5" />
<path d="M198.44,131.37A2.5,2.5 0 1 1 193.44,131.37A2.5,2.5 0 1 1 198.44,131.37Z" style="fill:none;stroke:#F15A60;stroke-width:0.5" />
<path d="M200.93,123.82A2.5,2.5 0 1 1 195.93,123.82A2.5,2.5 0 1 1 200.93,123.82Z" style="fill:none;stroke:#F15A60;stroke-width:0.5" />
<path d="M203.42,171.93A2.5,2.5 0 1 1 198.42,171.93A2.5,2.5 0 1 1 203.42,171.93Z" style="fill:none;stroke:#F15A60;stroke-width:0.5" />
<path d="M205.91,124.63A2.5,2.5 0 1 1 200.91,124.63A2.5,2.5 0 1 1 205.91,124.63Z" style="fill:none;stroke:#F15A60;stroke-width:0.5" />
<path d="M208.39,109.05A2.5,2.5 0 1 1 203.39,109.05A2.5,2.5 0 1 1 208.39,109.05Z" style="fill:none;stroke:#F15A60;stroke-width:0.5" />
<path d="M210.88,120.35A2.5,2.5 0 1 1 205.88,120.35A2.5,2.5 0 1 1 210.88,120.35Z" style="fill:none;stroke:#F15A60;stroke-width:0.5" />
<path d="M213.37,121.38A2.5,2.5 0 1 1 208.37,121.38A2.5,2.5 0 1 1 213.37,121.38Z" style="fill:none;stroke:#F15A60;stroke-width:0.5" />
<path d="M215.86,143.37A2.5,2.5 0 1 1 210.86,143.37A2.5,2.5 0 1 1 215.86,143.37Z" style="fill:none;stroke:#F15A60;stroke-width:0.5" />
<path d="M218.34,144.33A2.5,2.5 0 1 1 213.34,144.33A2.5,2.5 0 1 1 218.34,144.33Z" style="fill:none;stroke:#F15A60;stroke-width:0.5" />
<path d="M220.83,159A2.5,2.5 0 1 1 215.83,159A2.5,2.5 0 1 1 220.83,159Z" style="fill:none;stroke:#F15A60;stroke-width:0.5" />
<path d="M223.32,162.07A2.5,2.5 0 1 1 218.32,162.07A2.5,2.5 0 1 1 223.32,162.07Z" style="fill:none;stroke:#F15A60;stroke-width:0.5" />
<path d="M225.81,109.34A2.5,2.5 0 1 1 220.81,109.34A2.5,2.5 0 1 1 225.81,109.34Z" style="fill:none;stroke:#F15A60;stroke-width:0.5" />
<path d="M228.29,114.73A2.5,2.5 0 1 1 223.29,114.73A2.5,2.5 0 1 1 228.29,114.73Z" style="fill:none;stroke:#F15A60;stroke-width:0.5" />
<path d="M230.78,119.29A2.5,2.5 0 1 1 225.78,119.29A2.5,2.5 0 1 1 230.78,119.29Z" style="fill:none;stroke:#F15A60;stroke-width:0.5" />
<path d="M233.27,132.11A2.5,2.5 0 1 1 228.27,132.11A2.5,2.5 0 1 1 233.27,132.11Z" style="fill:none;stroke:#F15A60;stroke-width:0.5" />
<path d="M235.76,123.45A2.5,2.5 0 1 1 230.76,123.45A2.5,2.5 0 1 1 235.76,123.45Z" style="fill:none;stroke:#F15A60;stroke-width:0.5" />
<path d="M238.25,138.24A2.5,2.5 0 1 1 233.25,138.24A2.5,2.5 0 1 1 238.25,138.24Z" style="fill:none;stroke:#F15A60;stroke-width:0.5" />
<path d="M240.73,168.87A2.5,2.5 0 1 1 235.73,168.87A2.5,2.5 0 1 1 240.73,168.87Z" style="fill:none;stroke:#F15A60;stroke-width:0.5" />
<path d="M243.22,149.19A2.5,2.5 0 1 1 238.22,149.19A2.5,2.5 0 1 1 243.22,149.19Z" style="fill:none;stroke:#F15A60;stroke-width:0.5" />
<path d="M245.71,105.94A2.5,2.5 0 1 1 240.71,105.94A2.5,2.5 0 1 1 245.71,105.94Z" style="fill:none;stroke:#F15A60;stroke-width:0.5" />
<path d="M248.2,108.91A2.5,2.5 0 1 1 243.2,108.91A2.5,2.5 0 1 1 248.2,108.91Z" style="fill:none;stroke:#F15A60;stroke-width:0.5" />
<path d="M250.68,112.64A2.5,2.5 0 1 1 245.68,112.64A2.5,2.5 0 1 1 250.68,112.64Z" style="fill:none;stroke:#F15A60;stroke-width:0.5" />
<path d="M253.17,124.17A2.5,2.5 0 1 1 248.17,124.17A2.5,2.5 0 1 1 253.17,124.17Z" style="fill:none;stroke:#F15A60;stroke-width:0.5" />
<path d="M255.66,128.58A2.5,2.5 0 1 1 250.66,128.58A2.5,2.5 0 1 1 255.66,128.58Z" style="fill:none;stroke:#F15A60;stroke-width:0.5" />
<path d="M258.15,149.14A2.5,2.5 0 1 1 253.15,149.14A2.5,2.5 0 1 1 258.15,149.14Z" style="fill:none;stroke:#F15A60;stroke-width:0.5" />
<path d="M260.64,162.57A2.5,2.5 0 1 1 255.64,162.57A2.5,2.5 0 1 1 260.64,162.57Z" style="fill:none;stroke:#F15A60;stroke-width:0.5" />
<path d="M263.12,176.85A2.5,2.5 0 1 1 258.12,176.85A2.5,2.5 0 1 1 263.12,176.85Z" style="fill:none;stroke:#F15A60;stroke-width:0.5" />
<path d="M265.61,124.3A2.5,2.5 0 1 1 260.61,124.3A2.5,2.5 0 1 1 265.61,124.3Z" style="fill:none;stroke:#F15A60;stroke-width:0.5" />
<path d="M268.1,96.642A2.5,2.5 0 1 1 263.1,96.642A2.5,2.5 0 1 1 268.1,96.642Z" style="fill:none;stroke:#F15A60;stroke-width:0.5" />
<path d="M270.59,99.264A2.5,2.5 0 1 1 265.59,99.264A2.5,2.5 0 1 1 270.59,99.264Z" style="fill:none;stroke:#F15A60;stroke-width:0.5" />
<path d="M273.07,97.872A2.5,2.5 0 1 1 268.07,97.872A2.5,2.5 0 1 1 273.07,97.872Z" style="fill:none;stroke:#F15A60;stroke-width:0.5" />
<path d="M275.56,103.07A2.5,2.5 0 1 1 270.56,103.07A2.5,2.5 0 1 1 275.56,103.07Z" style="fill:none;stroke:#F15A60;stroke-width:0.5" />
<path d="M278.05,115.9A2.5,2.5 0 1 1 273.05,115.9A2.5,2.5 0 1 1 278.05,115.9Z" style="fill:none;stroke:#F15A60;stroke-width:0.5" />
<path d="M280.54,121.16A2.5,2.5 0 1 1 275.54,121.16A2.5,2.5 0 1 1 280.54,121.16Z" style="fill:none;stroke:#F15A60;stroke-width:0.5" />
<path d="M283.02,124.14A2.5,2.5 0 1 1 278.02,124.14A2.5,2.5 0 1 1 283.02,124.14Z" style="fill:none;stroke:#F15A60;stroke-width:0.5" />
<path d="M285.51,130.67A2.5,2.5 0 1 1 280.51,130.67A2.5,2.5 0 1 1 285.51,130.67Z" style="fill:none;stroke:#F15A60;stroke-width:0.5" />
<path d="M288,146.68A2.5,2.5 0 1 1 283,146.68A2.5,2.5 0 1 1 288,146.68Z" style="fill:none;stroke:#F15A60;stroke-width:0.5" />
<path d="M268,44.369L288,44.369" style="fill:none;stroke:#F15A60" />
<path d="M280.5,44.369A2.5,2.5 0 1 1 275.5,44.369A2.5,2.5 0 1 1 280.5,44.369Z" style="fill:none;stroke:#F15A60;stroke-width:0.5" />
<text x="187.02" y="-38.703" transform="scale(1, -1)"
	style="font-family:Times;font-weight:normal;font-style:normal;font-size:12px">rows per second</text>
</g>
</svg>
