<?xml version="1.0"?>
<!-- Generated by SVGo and Plotinum VG -->
<svg width="288pt" height="288pt" viewBox="0 0 288 288"
	xmlns="http://www.w3.org/2000/svg"
	xmlns:xlink="http://www.w3.org/1999/xlink">
<g transform="scale(1, -1) translate(0, -288)">
<path d="M0,0L288,0L288,288L0,288Z" style="fill:#FFFFFF" />
<text x="50.186" y="-276.45" transform="scale(1, -1)"
	style="font-family:Times;font-weight:normal;font-style:normal;font-size:12px">Scan speed, in million rows per second</text>
<text x="115.68" y="-3.8613" transform="scale(1, -1)"
	style="font-family:Times;font-weight:normal;font-style:normal;font-size:12px">number of goroutines</text>
<text x="77.928" y="-15.602" transform="scale(1, -1)"
	style="font-family:Times;font-weight:normal;font-style:normal;font-size:10px">10</text>
<text x="115.44" y="-15.602" transform="scale(1, -1)"
	style="font-family:Times;font-weight:normal;font-style:normal;font-size:10px">20</text>
<text x="152.95" y="-15.602" transform="scale(1, -1)"
	style="font-family:Times;font-weight:normal;font-style:normal;font-size:10px">30</text>
<text x="190.47" y="-15.602" transform="scale(1, -1)"
	style="font-family:Times;font-weight:normal;font-style:normal;font-size:10px">40</text>
<text x="227.98" y="-15.602" transform="scale(1, -1)"
	style="font-family:Times;font-weight:normal;font-style:normal;font-size:10px">50</text>
<text x="265.49" y="-15.602" transform="scale(1, -1)"
	style="font-family:Times;font-weight:normal;font-style:normal;font-size:10px">60</text>
<path d="M82.928,25.23L82.928,33.23" style="fill:none;stroke:#000000;stroke-width:0.5" />
<path d="M120.44,25.23L120.44,33.23" style="fill:none;stroke:#000000;stroke-width:0.5" />
<path d="M157.95,25.23L157.95,33.23" style="fill:none;stroke:#000000;stroke-width:0.5" />
<path d="M195.47,25.23L195.47,33.23" style="fill:none;stroke:#000000;stroke-width:0.5" />
<path d="M232.98,25.23L232.98,33.23" style="fill:none;stroke:#000000;stroke-width:0.5" />
<path d="M270.49,25.23L270.49,33.23" style="fill:none;stroke:#000000;stroke-width:0.5" />
<path d="M52.917,29.23L52.917,33.23" style="fill:none;stroke:#000000;stroke-width:0.5" />
<path d="M60.42,29.23L60.42,33.23" style="fill:none;stroke:#000000;stroke-width:0.5" />
<path d="M67.923,29.23L67.923,33.23" style="fill:none;stroke:#000000;stroke-width:0.5" />
<path d="M75.425,29.23L75.425,33.23" style="fill:none;stroke:#000000;stroke-width:0.5" />
<path d="M90.431,29.23L90.431,33.23" style="fill:none;stroke:#000000;stroke-width:0.5" />
<path d="M97.933,29.23L97.933,33.23" style="fill:none;stroke:#000000;stroke-width:0.5" />
<path d="M105.44,29.23L105.44,33.23" style="fill:none;stroke:#000000;stroke-width:0.5" />
<path d="M112.94,29.23L112.94,33.23" style="fill:none;stroke:#000000;stroke-width:0.5" />
<path d="M127.94,29.23L127.94,33.23" style="fill:none;stroke:#000000;stroke-width:0.5" />
<path d="M135.45,29.23L135.45,33.23" style="fill:none;stroke:#000000;stroke-width:0.5" />
<path d="M142.95,29.23L142.95,33.23" style="fill:none;stroke:#000000;stroke-width:0.5" />
<path d="M150.45,29.23L150.45,33.23" style="fill:none;stroke:#000000;stroke-width:0.5" />
<path d="M165.46,29.23L165.46,33.23" style="fill:none;stroke:#000000;stroke-width:0.5" />
<path d="M172.96,29.23L172.96,33.23" style="fill:none;stroke:#000000;stroke-width:0.5" />
<path d="M180.46,29.23L180.46,33.23" style="fill:none;stroke:#000000;stroke-width:0.5" />
<path d="M187.97,29.23L187.97,33.23" style="fill:none;stroke:#000000;stroke-width:0.5" />
<path d="M202.97,29.23L202.97,33.23" style="fill:none;stroke:#000000;stroke-width:0.5" />
<path d="M210.47,29.23L210.47,33.23" style="fill:none;stroke:#000000;stroke-width:0.5" />
<path d="M217.98,29.23L217.98,33.23" style="fill:none;stroke:#000000;stroke-width:0.5" />
<path d="M225.48,29.23L225.48,33.23" style="fill:none;stroke:#000000;stroke-width:0.5" />
<path d="M240.48,29.23L240.48,33.23" style="fill:none;stroke:#000000;stroke-width:0.5" />
<path d="M247.99,29.23L247.99,33.23" style="fill:none;stroke:#000000;stroke-width:0.5" />
<path d="M255.49,29.23L255.49,33.23" style="fill:none;stroke:#000000;stroke-width:0.5" />
<path d="M262.99,29.23L262.99,33.23" style="fill:none;stroke:#000000;stroke-width:0.5" />
<path d="M278,29.23L278,33.23" style="fill:none;stroke:#000000;stroke-width:0.5" />
<path d="M285.5,29.23L285.5,33.23" style="fill:none;stroke:#000000;stroke-width:0.5" />
<path d="M49.166,33.23L285.5,33.23" style="fill:none;stroke:#000000;stroke-width:0.5" />
<g transform="rotate(90)">
<text x="148.2" y="11.555" transform="scale(1, -1)"
	style="font-family:Times;font-weight:normal;font-style:normal;font-size:12px">rps</text>
</g>
<text x="15.416" y="-57.887" transform="scale(1, -1)"
	style="font-family:Times;font-weight:normal;font-style:normal;font-size:10px">100</text>
<text x="15.416" y="-142.95" transform="scale(1, -1)"
	style="font-family:Times;font-weight:normal;font-style:normal;font-size:10px">400</text>
<text x="15.416" y="-228" transform="scale(1, -1)"
	style="font-family:Times;font-weight:normal;font-style:normal;font-size:10px">700</text>
<path d="M32.916,62.609L40.916,62.609" style="fill:none;stroke:#000000;stroke-width:0.5" />
<path d="M32.916,147.67L40.916,147.67" style="fill:none;stroke:#000000;stroke-width:0.5" />
<path d="M32.916,232.73L40.916,232.73" style="fill:none;stroke:#000000;stroke-width:0.5" />
<path d="M36.916,90.961L40.916,90.961" style="fill:none;stroke:#000000;stroke-width:0.5" />
<path d="M36.916,119.31L40.916,119.31" style="fill:none;stroke:#000000;stroke-width:0.5" />
<path d="M36.916,176.02L40.916,176.02" style="fill:none;stroke:#000000;stroke-width:0.5" />
<path d="M36.916,204.37L40.916,204.37" style="fill:none;stroke:#000000;stroke-width:0.5" />
<path d="M36.916,261.08L40.916,261.08" style="fill:none;stroke:#000000;stroke-width:0.5" />
<path d="M40.916,40.98L40.916,270.08" style="fill:none;stroke:#000000;stroke-width:0.5" />
<path d="M49.166,42.959L52.917,51.651L56.669,60.435L60.42,68.972L64.171,77.253L67.923,84.152L71.674,93.639L75.425,103.35L79.177,111.75L82.928,118.08L86.679,128.75L90.431,128.53L94.182,146.14L97.933,150.94L101.68,138.35L105.44,172.65L109.19,131.57L112.94,142.06L116.69,145.71L120.44,141.85L124.19,131.29L127.94,218.25L131.7,177.48L135.45,137.98L139.2,191.75L142.95,149.15L146.7,202.73L150.45,145.42L154.2,213.79L157.95,125.23L161.71,172.89L165.46,223.04L169.21,126.32L172.96,176.23L176.71,236.44L180.46,112.31L184.21,134.3L187.97,174.27L191.72,250.92L195.47,104.58L199.22,122.44L202.97,151.15L206.72,190.43L210.47,270.08L214.22,98.843L217.98,109.82L221.73,124.72L225.48,147.81L229.23,186.09L232.98,137.43L236.73,88.971L240.48,95.047L244.24,102.99L247.99,113.28L251.74,74.69L255.49,52.791L259.24,45.796L262.99,44.951L266.74,46.593L270.49,42.575L274.25,41.324L278,41.112L281.75,40.995L285.5,40.98" style="fill:none;stroke:#F15A60" />
<path d="M51.666,42.959A2.5,2.5 0 1 1 46.666,42.959A2.5,2.5 0 1 1 51.666,42.959Z" style="fill:none;stroke:#F15A60;stroke-width:0.5" />
<path d="M55.417,51.651A2.5,2.5 0 1 1 50.417,51.651A2.5,2.5 0 1 1 55.417,51.651Z" style="fill:none;stroke:#F15A60;stroke-width:0.5" />
<path d="M59.169,60.435A2.5,2.5 0 1 1 54.169,60.435A2.5,2.5 0 1 1 59.169,60.435Z" style="fill:none;stroke:#F15A60;stroke-width:0.5" />
<path d="M62.92,68.972A2.5,2.5 0 1 1 57.92,68.972A2.5,2.5 0 1 1 62.92,68.972Z" style="fill:none;stroke:#F15A60;stroke-width:0.5" />
<path d="M66.671,77.253A2.5,2.5 0 1 1 61.671,77.253A2.5,2.5 0 1 1 66.671,77.253Z" style="fill:none;stroke:#F15A60;stroke-width:0.5" />
<path d="M70.423,84.152A2.5,2.5 0 1 1 65.423,84.152A2.5,2.5 0 1 1 70.423,84.152Z" style="fill:none;stroke:#F15A60;stroke-width:0.5" />
<path d="M74.174,93.639A2.5,2.5 0 1 1 69.174,93.639A2.5,2.5 0 1 1 74.174,93.639Z" style="fill:none;stroke:#F15A60;stroke-width:0.5" />
<path d="M77.925,103.35A2.5,2.5 0 1 1 72.925,103.35A2.5,2.5 0 1 1 77.925,103.35Z" style="fill:none;stroke:#F15A60;stroke-width:0.5" />
<path d="M81.677,111.75A2.5,2.5 0 1 1 76.677,111.75A2.5,2.5 0 1 1 81.677,111.75Z" style="fill:none;stroke:#F15A60;stroke-width:0.5" />
<path d="M85.428,118.08A2.5,2.5 0 1 1 80.428,118.08A2.5,2.5 0 1 1 85.428,118.08Z" style="fill:none;stroke:#F15A60;stroke-width:0.5" />
<path d="M89.179,128.75A2.5,2.5 0 1 1 84.179,128.75A2.5,2.5 0 1 1 89.179,128.75Z" style="fill:none;stroke:#F15A60;stroke-width:0.5" />
<path d="M92.931,128.53A2.5,2.5 0 1 1 87.931,128.53A2.5,2.5 0 1 1 92.931,128.53Z" style="fill:none;stroke:#F15A60;stroke-width:0.5" />
<path d="M96.682,146.14A2.5,2.5 0 1 1 91.682,146.14A2.5,2.5 0 1 1 96.682,146.14Z" style="fill:none;stroke:#F15A60;stroke-width:0.5" />
<path d="M100.43,150.94A2.5,2.5 0 1 1 95.433,150.94A2.5,2.5 0 1 1 100.43,150.94Z" style="fill:none;stroke:#F15A60;stroke-width:0.5" />
<path d="M104.18,138.35A2.5,2.5 0 1 1 99.185,138.35A2.5,2.5 0 1 1 104.18,138.35Z" style="fill:none;stroke:#F15A60;stroke-width:0.5" />
<path d="M107.94,172.65A2.5,2.5 0 1 1 102.94,172.65A2.5,2.5 0 1 1 107.94,172.65Z" style="fill:none;stroke:#F15A60;stroke-width:0.5" />
<path d="M111.69,131.57A2.5,2.5 0 1 1 106.69,131.57A2.5,2.5 0 1 1 111.69,131.57Z" style="fill:none;stroke:#F15A60;stroke-width:0.5" />
<path d="M115.44,142.06A2.5,2.5 0 1 1 110.44,142.06A2.5,2.5 0 1 1 115.44,142.06Z" style="fill:none;stroke:#F15A60;stroke-width:0.5" />
<path d="M119.19,145.71A2.5,2.5 0 1 1 114.19,145.71A2.5,2.5 0 1 1 119.19,145.71Z" style="fill:none;stroke:#F15A60;stroke-width:0.5" />
<path d="M122.94,141.85A2.5,2.5 0 1 1 117.94,141.85A2.5,2.5 0 1 1 122.94,141.85Z" style="fill:none;stroke:#F15A60;stroke-width:0.5" />
<path d="M126.69,131.29A2.5,2.5 0 1 1 121.69,131.29A2.5,2.5 0 1 1 126.69,131.29Z" style="fill:none;stroke:#F15A60;stroke-width:0.5" />
<path d="M130.44,218.25A2.5,2.5 0 1 1 125.44,218.25A2.5,2.5 0 1 1 130.44,218.25Z" style="fill:none;stroke:#F15A60;stroke-width:0.5" />
<path d="M134.2,177.48A2.5,2.5 0 1 1 129.2,177.48A2.5,2.5 0 1 1 134.2,177.48Z" style="fill:none;stroke:#F15A60;stroke-width:0.5" />
<path d="M137.95,137.98A2.5,2.5 0 1 1 132.95,137.98A2.5,2.5 0 1 1 137.95,137.98Z" style="fill:none;stroke:#F15A60;stroke-width:0.5" />
<path d="M141.7,191.75A2.5,2.5 0 1 1 136.7,191.75A2.5,2.5 0 1 1 141.7,191.75Z" style="fill:none;stroke:#F15A60;stroke-width:0.5" />
<path d="M145.45,149.15A2.5,2.5 0 1 1 140.45,149.15A2.5,2.5 0 1 1 145.45,149.15Z" style="fill:none;stroke:#F15A60;stroke-width:0.5" />
<path d="M149.2,202.73A2.5,2.5 0 1 1 144.2,202.73A2.5,2.5 0 1 1 149.2,202.73Z" style="fill:none;stroke:#F15A60;stroke-width:0.5" />
<path d="M152.95,145.42A2.5,2.5 0 1 1 147.95,145.42A2.5,2.5 0 1 1 152.95,145.42Z" style="fill:none;stroke:#F15A60;stroke-width:0.5" />
<path d="M156.7,213.79A2.5,2.5 0 1 1 151.7,213.79A2.5,2.5 0 1 1 156.7,213.79Z" style="fill:none;stroke:#F15A60;stroke-width:0.5" />
<path d="M160.45,125.23A2.5,2.5 0 1 1 155.45,125.23A2.5,2.5 0 1 1 160.45,125.23Z" style="fill:none;stroke:#F15A60;stroke-width:0.5" />
<path d="M164.21,172.89A2.5,2.5 0 1 1 159.21,172.89A2.5,2.5 0 1 1 164.21,172.89Z" style="fill:none;stroke:#F15A60;stroke-width:0.5" />
<path d="M167.96,223.04A2.5,2.5 0 1 1 162.96,223.04A2.5,2.5 0 1 1 167.96,223.04Z" style="fill:none;stroke:#F15A60;stroke-width:0.5" />
<path d="M171.71,126.32A2.5,2.5 0 1 1 166.71,126.32A2.5,2.5 0 1 1 171.71,126.32Z" style="fill:none;stroke:#F15A60;stroke-width:0.5" />
<path d="M175.46,176.23A2.5,2.5 0 1 1 170.46,176.23A2.5,2.5 0 1 1 175.46,176.23Z" style="fill:none;stroke:#F15A60;stroke-width:0.5" />
<path d="M179.21,236.44A2.5,2.5 0 1 1 174.21,236.44A2.5,2.5 0 1 1 179.21,236.44Z" style="fill:none;stroke:#F15A60;stroke-width:0.5" />
<path d="M182.96,112.31A2.5,2.5 0 1 1 177.96,112.31A2.5,2.5 0 1 1 182.96,112.31Z" style="fill:none;stroke:#F15A60;stroke-width:0.5" />
<path d="M186.71,134.3A2.5,2.5 0 1 1 181.71,134.3A2.5,2.5 0 1 1 186.71,134.3Z" style="fill:none;stroke:#F15A60;stroke-width:0.5" />
<path d="M190.47,174.27A2.5,2.5 0 1 1 185.47,174.27A2.5,2.5 0 1 1 190.47,174.27Z" style="fill:none;stroke:#F15A60;stroke-width:0.5" />
<path d="M194.22,250.92A2.5,2.5 0 1 1 189.22,250.92A2.5,2.5 0 1 1 194.22,250.92Z" style="fill:none;stroke:#F15A60;stroke-width:0.5" />
<path d="M197.97,104.58A2.5,2.5 0 1 1 192.97,104.58A2.5,2.5 0 1 1 197.97,104.58Z" style="fill:none;stroke:#F15A60;stroke-width:0.5" />
<path d="M201.72,122.44A2.5,2.5 0 1 1 196.72,122.44A2.5,2.5 0 1 1 201.72,122.44Z" style="fill:none;stroke:#F15A60;stroke-width:0.5" />
<path d="M205.47,151.15A2.5,2.5 0 1 1 200.47,151.15A2.5,2.5 0 1 1 205.47,151.15Z" style="fill:none;stroke:#F15A60;stroke-width:0.5" />
<path d="M209.22,190.43A2.5,2.5 0 1 1 204.22,190.43A2.5,2.5 0 1 1 209.22,190.43Z" style="fill:none;stroke:#F15A60;stroke-width:0.5" />
<path d="M212.97,270.08A2.5,2.5 0 1 1 207.97,270.08A2.5,2.5 0 1 1 212.97,270.08Z" style="fill:none;stroke:#F15A60;stroke-width:0.5" />
<path d="M216.72,98.843A2.5,2.5 0 1 1 211.72,98.843A2.5,2.5 0 1 1 216.72,98.843Z" style="fill:none;stroke:#F15A60;stroke-width:0.5" />
<path d="M220.48,109.82A2.5,2.5 0 1 1 215.48,109.82A2.5,2.5 0 1 1 220.48,109.82Z" style="fill:none;stroke:#F15A60;stroke-width:0.5" />
<path d="M224.23,124.72A2.5,2.5 0 1 1 219.23,124.72A2.5,2.5 0 1 1 224.23,124.72Z" style="fill:none;stroke:#F15A60;stroke-width:0.5" />
<path d="M227.98,147.81A2.5,2.5 0 1 1 222.98,147.81A2.5,2.5 0 1 1 227.98,147.81Z" style="fill:none;stroke:#F15A60;stroke-width:0.5" />
<path d="M231.73,186.09A2.5,2.5 0 1 1 226.73,186.09A2.5,2.5 0 1 1 231.73,186.09Z" style="fill:none;stroke:#F15A60;stroke-width:0.5" />
<path d="M235.48,137.43A2.5,2.5 0 1 1 230.48,137.43A2.5,2.5 0 1 1 235.48,137.43Z" style="fill:none;stroke:#F15A60;stroke-width:0.5" />
<path d="M239.23,88.971A2.5,2.5 0 1 1 234.23,88.971A2.5,2.5 0 1 1 239.23,88.971Z" style="fill:none;stroke:#F15A60;stroke-width:0.5" />
<path d="M242.98,95.047A2.5,2.5 0 1 1 237.98,95.047A2.5,2.5 0 1 1 242.98,95.047Z" style="fill:none;stroke:#F15A60;stroke-width:0.5" />
<path d="M246.74,102.99A2.5,2.5 0 1 1 241.74,102.99A2.5,2.5 0 1 1 246.74,102.99Z" style="fill:none;stroke:#F15A60;stroke-width:0.5" />
<path d="M250.49,113.28A2.5,2.5 0 1 1 245.49,113.28A2.5,2.5 0 1 1 250.49,113.28Z" style="fill:none;stroke:#F15A60;stroke-width:0.5" />
<path d="M254.24,74.69A2.5,2.5 0 1 1 249.24,74.69A2.5,2.5 0 1 1 254.24,74.69Z" style="fill:none;stroke:#F15A60;stroke-width:0.5" />
<path d="M257.99,52.791A2.5,2.5 0 1 1 252.99,52.791A2.5,2.5 0 1 1 257.99,52.791Z" style="fill:none;stroke:#F15A60;stroke-width:0.5" />
<path d="M261.74,45.796A2.5,2.5 0 1 1 256.74,45.796A2.5,2.5 0 1 1 261.74,45.796Z" style="fill:none;stroke:#F15A60;stroke-width:0.5" />
<path d="M265.49,44.951A2.5,2.5 0 1 1 260.49,44.951A2.5,2.5 0 1 1 265.49,44.951Z" style="fill:none;stroke:#F15A60;stroke-width:0.5" />
<path d="M269.24,46.593A2.5,2.5 0 1 1 264.24,46.593A2.5,2.5 0 1 1 269.24,46.593Z" style="fill:none;stroke:#F15A60;stroke-width:0.5" />
<path d="M272.99,42.575A2.5,2.5 0 1 1 267.99,42.575A2.5,2.5 0 1 1 272.99,42.575Z" style="fill:none;stroke:#F15A60;stroke-width:0.5" />
<path d="M276.75,41.324A2.5,2.5 0 1 1 271.75,41.324A2.5,2.5 0 1 1 276.75,41.324Z" style="fill:none;stroke:#F15A60;stroke-width:0.5" />
<path d="M280.5,41.112A2.5,2.5 0 1 1 275.5,41.112A2.5,2.5 0 1 1 280.5,41.112Z" style="fill:none;stroke:#F15A60;stroke-width:0.5" />
<path d="M284.25,40.995A2.5,2.5 0 1 1 279.25,40.995A2.5,2.5 0 1 1 284.25,40.995Z" style="fill:none;stroke:#F15A60;stroke-width:0.5" />
<path d="M288,40.98A2.5,2.5 0 1 1 283,40.98A2.5,2.5 0 1 1 288,40.98Z" style="fill:none;stroke:#F15A60;stroke-width:0.5" />
<path d="M268,44.369L288,44.369" style="fill:none;stroke:#F15A60" />
<path d="M280.5,44.369A2.5,2.5 0 1 1 275.5,44.369A2.5,2.5 0 1 1 280.5,44.369Z" style="fill:none;stroke:#F15A60;stroke-width:0.5" />
<text x="187.02" y="-38.703" transform="scale(1, -1)"
	style="font-family:Times;font-weight:normal;font-style:normal;font-size:12px">rows per second</text>
</g>
</svg>
