<?xml version="1.0"?>
<!-- Generated by SVGo and Plotinum VG -->
<svg width="288pt" height="288pt" viewBox="0 0 288 288"
	xmlns="http://www.w3.org/2000/svg"
	xmlns:xlink="http://www.w3.org/1999/xlink">
<g transform="scale(1, -1) translate(0, -288)">
<path d="M0,0L288,0L288,288L0,288Z" style="fill:#FFFFFF" />
<text x="50.186" y="-276.45" transform="scale(1, -1)"
	style="font-family:Times;font-weight:normal;font-style:normal;font-size:12px">Scan speed, in million rows per second</text>
<text x="115.68" y="-3.8613" transform="scale(1, -1)"
	style="font-family:Times;font-weight:normal;font-style:normal;font-size:12px">number of goroutines</text>
<text x="66.556" y="-15.602" transform="scale(1, -1)"
	style="font-family:Times;font-weight:normal;font-style:normal;font-size:10px">10</text>
<text x="166.06" y="-15.602" transform="scale(1, -1)"
	style="font-family:Times;font-weight:normal;font-style:normal;font-size:10px">50</text>
<text x="265.57" y="-15.602" transform="scale(1, -1)"
	style="font-family:Times;font-weight:normal;font-style:normal;font-size:10px">90</text>
<path d="M71.556,25.23L71.556,33.23" style="fill:none;stroke:#000000;stroke-width:0.5" />
<path d="M171.06,25.23L171.06,33.23" style="fill:none;stroke:#000000;stroke-width:0.5" />
<path d="M270.57,25.23L270.57,33.23" style="fill:none;stroke:#000000;stroke-width:0.5" />
<path d="M96.433,29.23L96.433,33.23" style="fill:none;stroke:#000000;stroke-width:0.5" />
<path d="M121.31,29.23L121.31,33.23" style="fill:none;stroke:#000000;stroke-width:0.5" />
<path d="M146.19,29.23L146.19,33.23" style="fill:none;stroke:#000000;stroke-width:0.5" />
<path d="M195.94,29.23L195.94,33.23" style="fill:none;stroke:#000000;stroke-width:0.5" />
<path d="M220.82,29.23L220.82,33.23" style="fill:none;stroke:#000000;stroke-width:0.5" />
<path d="M245.7,29.23L245.7,33.23" style="fill:none;stroke:#000000;stroke-width:0.5" />
<path d="M49.166,33.23L285.5,33.23" style="fill:none;stroke:#000000;stroke-width:0.5" />
<g transform="rotate(90)">
<text x="148.2" y="11.555" transform="scale(1, -1)"
	style="font-family:Times;font-weight:normal;font-style:normal;font-size:12px">rps</text>
</g>
<text x="15.416" y="-82.747" transform="scale(1, -1)"
	style="font-family:Times;font-weight:normal;font-style:normal;font-size:10px">200</text>
<text x="15.416" y="-138.6" transform="scale(1, -1)"
	style="font-family:Times;font-weight:normal;font-style:normal;font-size:10px">400</text>
<text x="15.416" y="-194.45" transform="scale(1, -1)"
	style="font-family:Times;font-weight:normal;font-style:normal;font-size:10px">600</text>
<text x="15.416" y="-250.3" transform="scale(1, -1)"
	style="font-family:Times;font-weight:normal;font-style:normal;font-size:10px">800</text>
<path d="M32.916,87.469L40.916,87.469" style="fill:none;stroke:#000000;stroke-width:0.5" />
<path d="M32.916,143.32L40.916,143.32" style="fill:none;stroke:#000000;stroke-width:0.5" />
<path d="M32.916,199.17L40.916,199.17" style="fill:none;stroke:#000000;stroke-width:0.5" />
<path d="M32.916,255.02L40.916,255.02" style="fill:none;stroke:#000000;stroke-width:0.5" />
<path d="M36.916,59.543L40.916,59.543" style="fill:none;stroke:#000000;stroke-width:0.5" />
<path d="M36.916,115.39L40.916,115.39" style="fill:none;stroke:#000000;stroke-width:0.5" />
<path d="M36.916,171.25L40.916,171.25" style="fill:none;stroke:#000000;stroke-width:0.5" />
<path d="M36.916,227.1L40.916,227.1" style="fill:none;stroke:#000000;stroke-width:0.5" />
<path d="M40.916,40.98L40.916,270.08" style="fill:none;stroke:#000000;stroke-width:0.5" />
<path d="M49.166,40.98L51.654,50.286L54.141,58.887L56.629,67.342L59.117,75.337L61.605,83.631L64.092,91.413L66.58,97.935L69.068,107.1L71.556,113.37L74.043,115.12L76.531,124.98L79.019,138.83L81.506,143.08L83.994,131.73L86.482,132.08L88.97,154.35L91.457,169.56L93.945,179L96.433,181.07L98.921,166.35L101.41,139.26L103.9,167.99L106.38,191.79L108.87,211.9L111.36,222.04L113.85,223.62L116.33,228.15L118.82,201.25L121.31,191.09L123.8,167.36L126.29,146.75L128.77,182.4L131.26,167.91L133.75,221.52L136.24,183.05L138.72,230.33L141.21,166.99L143.7,235.85L146.19,177.09L148.68,237.11L151.16,153.86L153.65,213.09L156.14,127.06L158.63,159.58L161.11,214.1L163.6,126.45L166.09,153.52L168.58,189.52L171.06,259.59L173.55,133.12L176.04,156.15L178.53,200.98L181.02,270.08L183.5,133.91L185.99,153.29L188.48,171.12L190.97,126.36L193.45,115.09L195.94,129.58L198.43,139.37L200.92,141.59L203.41,213.37L205.89,105.56L208.38,113L210.87,116.15L213.36,138.98L215.84,148.82L218.33,147.81L220.82,141.32L223.31,103.17L225.79,110.94L228.28,120.41L230.77,112.32L233.26,128.95L235.75,141.35L238.23,153.46L240.72,135.37L243.21,99.767L245.7,100.75L248.18,111.44L250.67,114.83L253.16,131.92L255.65,144.11L258.14,128.57L260.62,126.66L263.11,152.2L265.6,88.659L268.09,90.622L270.57,97.028L273.06,100.33L275.55,107.36L278.04,112.77L280.52,121.08L283.01,129.42L285.5,121.54" style="fill:none;stroke:#F15A60" />
<path d="M51.666,40.98A2.5,2.5 0 1 1 46.666,40.98A2.5,2.5 0 1 1 51.666,40.98Z" style="fill:none;stroke:#F15A60;stroke-width:0.5" />
<path d="M54.154,50.286A2.5,2.5 0 1 1 49.154,50.286A2.5,2.5 0 1 1 54.154,50.286Z" style="fill:none;stroke:#F15A60;stroke-width:0.5" />
<path d="M56.641,58.887A2.5,2.5 0 1 1 51.641,58.887A2.5,2.5 0 1 1 56.641,58.887Z" style="fill:none;stroke:#F15A60;stroke-width:0.5" />
<path d="M59.129,67.342A2.5,2.5 0 1 1 54.129,67.342A2.5,2.5 0 1 1 59.129,67.342Z" style="fill:none;stroke:#F15A60;stroke-width:0.5" />
<path d="M61.617,75.337A2.5,2.5 0 1 1 56.617,75.337A2.5,2.5 0 1 1 61.617,75.337Z" style="fill:none;stroke:#F15A60;stroke-width:0.5" />
<path d="M64.105,83.631A2.5,2.5 0 1 1 59.105,83.631A2.5,2.5 0 1 1 64.105,83.631Z" style="fill:none;stroke:#F15A60;stroke-width:0.5" />
<path d="M66.592,91.413A2.5,2.5 0 1 1 61.592,91.413A2.5,2.5 0 1 1 66.592,91.413Z" style="fill:none;stroke:#F15A60;stroke-width:0.5" />
<path d="M69.08,97.935A2.5,2.5 0 1 1 64.08,97.935A2.5,2.5 0 1 1 69.08,97.935Z" style="fill:none;stroke:#F15A60;stroke-width:0.5" />
<path d="M71.568,107.1A2.5,2.5 0 1 1 66.568,107.1A2.5,2.5 0 1 1 71.568,107.1Z" style="fill:none;stroke:#F15A60;stroke-width:0.5" />
<path d="M74.056,113.37A2.5,2.5 0 1 1 69.056,113.37A2.5,2.5 0 1 1 74.056,113.37Z" style="fill:none;stroke:#F15A60;stroke-width:0.5" />
<path d="M76.543,115.12A2.5,2.5 0 1 1 71.543,115.12A2.5,2.5 0 1 1 76.543,115.12Z" style="fill:none;stroke:#F15A60;stroke-width:0.5" />
<path d="M79.031,124.98A2.5,2.5 0 1 1 74.031,124.98A2.5,2.5 0 1 1 79.031,124.98Z" style="fill:none;stroke:#F15A60;stroke-width:0.5" />
<path d="M81.519,138.83A2.5,2.5 0 1 1 76.519,138.83A2.5,2.5 0 1 1 81.519,138.83Z" style="fill:none;stroke:#F15A60;stroke-width:0.5" />
<path d="M84.006,143.08A2.5,2.5 0 1 1 79.006,143.08A2.5,2.5 0 1 1 84.006,143.08Z" style="fill:none;stroke:#F15A60;stroke-width:0.5" />
<path d="M86.494,131.73A2.5,2.5 0 1 1 81.494,131.73A2.5,2.5 0 1 1 86.494,131.73Z" style="fill:none;stroke:#F15A60;stroke-width:0.5" />
<path d="M88.982,132.08A2.5,2.5 0 1 1 83.982,132.08A2.5,2.5 0 1 1 88.982,132.08Z" style="fill:none;stroke:#F15A60;stroke-width:0.5" />
<path d="M91.47,154.35A2.5,2.5 0 1 1 86.47,154.35A2.5,2.5 0 1 1 91.47,154.35Z" style="fill:none;stroke:#F15A60;stroke-width:0.5" />
<path d="M93.957,169.56A2.5,2.5 0 1 1 88.957,169.56A2.5,2.5 0 1 1 93.957,169.56Z" style="fill:none;stroke:#F15A60;stroke-width:0.5" />
<path d="M96.445,179A2.5,2.5 0 1 1 91.445,179A2.5,2.5 0 1 1 96.445,179Z" style="fill:none;stroke:#F15A60;stroke-width:0.5" />
<path d="M98.933,181.07A2.5,2.5 0 1 1 93.933,181.07A2.5,2.5 0 1 1 98.933,181.07Z" style="fill:none;stroke:#F15A60;stroke-width:0.5" />
<path d="M101.42,166.35A2.5,2.5 0 1 1 96.421,166.35A2.5,2.5 0 1 1 101.42,166.35Z" style="fill:none;stroke:#F15A60;stroke-width:0.5" />
<path d="M103.91,139.26A2.5,2.5 0 1 1 98.908,139.26A2.5,2.5 0 1 1 103.91,139.26Z" style="fill:none;stroke:#F15A60;stroke-width:0.5" />
<path d="M106.4,167.99A2.5,2.5 0 1 1 101.4,167.99A2.5,2.5 0 1 1 106.4,167.99Z" style="fill:none;stroke:#F15A60;stroke-width:0.5" />
<path d="M108.88,191.79A2.5,2.5 0 1 1 103.88,191.79A2.5,2.5 0 1 1 108.88,191.79Z" style="fill:none;stroke:#F15A60;stroke-width:0.5" />
<path d="M111.37,211.9A2.5,2.5 0 1 1 106.37,211.9A2.5,2.5 0 1 1 111.37,211.9Z" style="fill:none;stroke:#F15A60;stroke-width:0.5" />
<path d="M113.86,222.04A2.5,2.5 0 1 1 108.86,222.04A2.5,2.5 0 1 1 113.86,222.04Z" style="fill:none;stroke:#F15A60;stroke-width:0.5" />
<path d="M116.35,223.62A2.5,2.5 0 1 1 111.35,223.62A2.5,2.5 0 1 1 116.35,223.62Z" style="fill:none;stroke:#F15A60;stroke-width:0.5" />
<path d="M118.83,228.15A2.5,2.5 0 1 1 113.83,228.15A2.5,2.5 0 1 1 118.83,228.15Z" style="fill:none;stroke:#F15A60;stroke-width:0.5" />
<path d="M121.32,201.25A2.5,2.5 0 1 1 116.32,201.25A2.5,2.5 0 1 1 121.32,201.25Z" style="fill:none;stroke:#F15A60;stroke-width:0.5" />
<path d="M123.81,191.09A2.5,2.5 0 1 1 118.81,191.09A2.5,2.5 0 1 1 123.81,191.09Z" style="fill:none;stroke:#F15A60;stroke-width:0.5" />
<path d="M126.3,167.36A2.5,2.5 0 1 1 121.3,167.36A2.5,2.5 0 1 1 126.3,167.36Z" style="fill:none;stroke:#F15A60;stroke-width:0.5" />
<path d="M128.79,146.75A2.5,2.5 0 1 1 123.79,146.75A2.5,2.5 0 1 1 128.79,146.75Z" style="fill:none;stroke:#F15A60;stroke-width:0.5" />
<path d="M131.27,182.4A2.5,2.5 0 1 1 126.27,182.4A2.5,2.5 0 1 1 131.27,182.4Z" style="fill:none;stroke:#F15A60;stroke-width:0.5" />
<path d="M133.76,167.91A2.5,2.5 0 1 1 128.76,167.91A2.5,2.5 0 1 1 133.76,167.91Z" style="fill:none;stroke:#F15A60;stroke-width:0.5" />
<path d="M136.25,221.52A2.5,2.5 0 1 1 131.25,221.52A2.5,2.5 0 1 1 136.25,221.52Z" style="fill:none;stroke:#F15A60;stroke-width:0.5" />
<path d="M138.74,183.05A2.5,2.5 0 1 1 133.74,183.05A2.5,2.5 0 1 1 138.74,183.05Z" style="fill:none;stroke:#F15A60;stroke-width:0.5" />
<path d="M141.22,230.33A2.5,2.5 0 1 1 136.22,230.33A2.5,2.5 0 1 1 141.22,230.33Z" style="fill:none;stroke:#F15A60;stroke-width:0.5" />
<path d="M143.71,166.99A2.5,2.5 0 1 1 138.71,166.99A2.5,2.5 0 1 1 143.71,166.99Z" style="fill:none;stroke:#F15A60;stroke-width:0.5" />
<path d="M146.2,235.85A2.5,2.5 0 1 1 141.2,235.85A2.5,2.5 0 1 1 146.2,235.85Z" style="fill:none;stroke:#F15A60;stroke-width:0.5" />
<path d="M148.69,177.09A2.5,2.5 0 1 1 143.69,177.09A2.5,2.5 0 1 1 148.69,177.09Z" style="fill:none;stroke:#F15A60;stroke-width:0.5" />
<path d="M151.18,237.11A2.5,2.5 0 1 1 146.18,237.11A2.5,2.5 0 1 1 151.18,237.11Z" style="fill:none;stroke:#F15A60;stroke-width:0.5" />
<path d="M153.66,153.86A2.5,2.5 0 1 1 148.66,153.86A2.5,2.5 0 1 1 153.66,153.86Z" style="fill:none;stroke:#F15A60;stroke-width:0.5" />
<path d="M156.15,213.09A2.5,2.5 0 1 1 151.15,213.09A2.5,2.5 0 1 1 156.15,213.09Z" style="fill:none;stroke:#F15A60;stroke-width:0.5" />
<path d="M158.64,127.06A2.5,2.5 0 1 1 153.64,127.06A2.5,2.5 0 1 1 158.64,127.06Z" style="fill:none;stroke:#F15A60;stroke-width:0.5" />
<path d="M161.13,159.58A2.5,2.5 0 1 1 156.13,159.58A2.5,2.5 0 1 1 161.13,159.58Z" style="fill:none;stroke:#F15A60;stroke-width:0.5" />
<path d="M163.61,214.1A2.5,2.5 0 1 1 158.61,214.1A2.5,2.5 0 1 1 163.61,214.1Z" style="fill:none;stroke:#F15A60;stroke-width:0.5" />
<path d="M166.1,126.45A2.5,2.5 0 1 1 161.1,126.45A2.5,2.5 0 1 1 166.1,126.45Z" style="fill:none;stroke:#F15A60;stroke-width:0.5" />
<path d="M168.59,153.52A2.5,2.5 0 1 1 163.59,153.52A2.5,2.5 0 1 1 168.59,153.52Z" style="fill:none;stroke:#F15A60;stroke-width:0.5" />
<path d="M171.08,189.52A2.5,2.5 0 1 1 166.08,189.52A2.5,2.5 0 1 1 171.08,189.52Z" style="fill:none;stroke:#F15A60;stroke-width:0.5" />
<path d="M173.56,259.59A2.5,2.5 0 1 1 168.56,259.59A2.5,2.5 0 1 1 173.56,259.59Z" style="fill:none;stroke:#F15A60;stroke-width:0.5" />
<path d="M176.05,133.12A2.5,2.5 0 1 1 171.05,133.12A2.5,2.5 0 1 1 176.05,133.12Z" style="fill:none;stroke:#F15A60;stroke-width:0.5" />
<path d="M178.54,156.15A2.5,2.5 0 1 1 173.54,156.15A2.5,2.5 0 1 1 178.54,156.15Z" style="fill:none;stroke:#F15A60;stroke-width:0.5" />
<path d="M181.03,200.98A2.5,2.5 0 1 1 176.03,200.98A2.5,2.5 0 1 1 181.03,200.98Z" style="fill:none;stroke:#F15A60;stroke-width:0.5" />
<path d="M183.52,270.08A2.5,2.5 0 1 1 178.52,270.08A2.5,2.5 0 1 1 183.52,270.08Z" style="fill:none;stroke:#F15A60;stroke-width:0.5" />
<path d="M186,133.91A2.5,2.5 0 1 1 181,133.91A2.5,2.5 0 1 1 186,133.91Z" style="fill:none;stroke:#F15A60;stroke-width:0.5" />
<path d="M188.49,153.29A2.5,2.5 0 1 1 183.49,153.29A2.5,2.5 0 1 1 188.49,153.29Z" style="fill:none;stroke:#F15A60;stroke-width:0.5" />
<path d="M190.98,171.12A2.5,2.5 0 1 1 185.98,171.12A2.5,2.5 0 1 1 190.98,171.12Z" style="fill:none;stroke:#F15A60;stroke-width:0.5" />
<path d="M193.47,126.36A2.5,2.5 0 1 1 188.47,126.36A2.5,2.5 0 1 1 193.47,126.36Z" style="fill:none;stroke:#F15A60;stroke-width:0.5" />
<path d="M195.95,115.09A2.5,2.5 0 1 1 190.95,115.09A2.5,2.5 0 1 1 195.95,115.09Z" style="fill:none;stroke:#F15A60;stroke-width:0.5" />
<path d="M198.44,129.58A2.5,2.5 0 1 1 193.44,129.58A2.5,2.5 0 1 1 198.44,129.58Z" style="fill:none;stroke:#F15A60;stroke-width:0.5" />
<path d="M200.93,139.37A2.5,2.5 0 1 1 195.93,139.37A2.5,2.5 0 1 1 200.93,139.37Z" style="fill:none;stroke:#F15A60;stroke-width:0.5" />
<path d="M203.42,141.59A2.5,2.5 0 1 1 198.42,141.59A2.5,2.5 0 1 1 203.42,141.59Z" style="fill:none;stroke:#F15A60;stroke-width:0.5" />
<path d="M205.91,213.37A2.5,2.5 0 1 1 200.91,213.37A2.5,2.5 0 1 1 205.91,213.37Z" style="fill:none;stroke:#F15A60;stroke-width:0.5" />
<path d="M208.39,105.56A2.5,2.5 0 1 1 203.39,105.56A2.5,2.5 0 1 1 208.39,105.56Z" style="fill:none;stroke:#F15A60;stroke-width:0.5" />
<path d="M210.88,113A2.5,2.5 0 1 1 205.88,113A2.5,2.5 0 1 1 210.88,113Z" style="fill:none;stroke:#F15A60;stroke-width:0.5" />
<path d="M213.37,116.15A2.5,2.5 0 1 1 208.37,116.15A2.5,2.5 0 1 1 213.37,116.15Z" style="fill:none;stroke:#F15A60;stroke-width:0.5" />
<path d="M215.86,138.98A2.5,2.5 0 1 1 210.86,138.98A2.5,2.5 0 1 1 215.86,138.98Z" style="fill:none;stroke:#F15A60;stroke-width:0.5" />
<path d="M218.34,148.82A2.5,2.5 0 1 1 213.34,148.82A2.5,2.5 0 1 1 218.34,148.82Z" style="fill:none;stroke:#F15A60;stroke-width:0.5" />
<path d="M220.83,147.81A2.5,2.5 0 1 1 215.83,147.81A2.5,2.5 0 1 1 220.83,147.81Z" style="fill:none;stroke:#F15A60;stroke-width:0.5" />
<path d="M223.32,141.32A2.5,2.5 0 1 1 218.32,141.32A2.5,2.5 0 1 1 223.32,141.32Z" style="fill:none;stroke:#F15A60;stroke-width:0.5" />
<path d="M225.81,103.17A2.5,2.5 0 1 1 220.81,103.17A2.5,2.5 0 1 1 225.81,103.17Z" style="fill:none;stroke:#F15A60;stroke-width:0.5" />
<path d="M228.29,110.94A2.5,2.5 0 1 1 223.29,110.94A2.5,2.5 0 1 1 228.29,110.94Z" style="fill:none;stroke:#F15A60;stroke-width:0.5" />
<path d="M230.78,120.41A2.5,2.5 0 1 1 225.78,120.41A2.5,2.5 0 1 1 230.78,120.41Z" style="fill:none;stroke:#F15A60;stroke-width:0.5" />
<path d="M233.27,112.32A2.5,2.5 0 1 1 228.27,112.32A2.5,2.5 0 1 1 233.27,112.32Z" style="fill:none;stroke:#F15A60;stroke-width:0.5" />
<path d="M235.76,128.95A2.5,2.5 0 1 1 230.76,128.95A2.5,2.5 0 1 1 235.76,128.95Z" style="fill:none;stroke:#F15A60;stroke-width:0.5" />
<path d="M238.25,141.35A2.5,2.5 0 1 1 233.25,141.35A2.5,2.5 0 1 1 238.25,141.35Z" style="fill:none;stroke:#F15A60;stroke-width:0.5" />
<path d="M240.73,153.46A2.5,2.5 0 1 1 235.73,153.46A2.5,2.5 0 1 1 240.73,153.46Z" style="fill:none;stroke:#F15A60;stroke-width:0.5" />
<path d="M243.22,135.37A2.5,2.5 0 1 1 238.22,135.37A2.5,2.5 0 1 1 243.22,135.37Z" style="fill:none;stroke:#F15A60;stroke-width:0.5" />
<path d="M245.71,99.767A2.5,2.5 0 1 1 240.71,99.767A2.5,2.5 0 1 1 245.71,99.767Z" style="fill:none;stroke:#F15A60;stroke-width:0.5" />
<path d="M248.2,100.75A2.5,2.5 0 1 1 243.2,100.75A2.5,2.5 0 1 1 248.2,100.75Z" style="fill:none;stroke:#F15A60;stroke-width:0.5" />
<path d="M250.68,111.44A2.5,2.5 0 1 1 245.68,111.44A2.5,2.5 0 1 1 250.68,111.44Z" style="fill:none;stroke:#F15A60;stroke-width:0.5" />
<path d="M253.17,114.83A2.5,2.5 0 1 1 248.17,114.83A2.5,2.5 0 1 1 253.17,114.83Z" style="fill:none;stroke:#F15A60;stroke-width:0.5" />
<path d="M255.66,131.92A2.5,2.5 0 1 1 250.66,131.92A2.5,2.5 0 1 1 255.66,131.92Z" style="fill:none;stroke:#F15A60;stroke-width:0.5" />
<path d="M258.15,144.11A2.5,2.5 0 1 1 253.15,144.11A2.5,2.5 0 1 1 258.15,144.11Z" style="fill:none;stroke:#F15A60;stroke-width:0.5" />
<path d="M260.64,128.57A2.5,2.5 0 1 1 255.64,128.57A2.5,2.5 0 1 1 260.64,128.57Z" style="fill:none;stroke:#F15A60;stroke-width:0.5" />
<path d="M263.12,126.66A2.5,2.5 0 1 1 258.12,126.66A2.5,2.5 0 1 1 263.12,126.66Z" style="fill:none;stroke:#F15A60;stroke-width:0.5" />
<path d="M265.61,152.2A2.5,2.5 0 1 1 260.61,152.2A2.5,2.5 0 1 1 265.61,152.2Z" style="fill:none;stroke:#F15A60;stroke-width:0.5" />
<path d="M268.1,88.659A2.5,2.5 0 1 1 263.1,88.659A2.5,2.5 0 1 1 268.1,88.659Z" style="fill:none;stroke:#F15A60;stroke-width:0.5" />
<path d="M270.59,90.622A2.5,2.5 0 1 1 265.59,90.622A2.5,2.5 0 1 1 270.59,90.622Z" style="fill:none;stroke:#F15A60;stroke-width:0.5" />
<path d="M273.07,97.028A2.5,2.5 0 1 1 268.07,97.028A2.5,2.5 0 1 1 273.07,97.028Z" style="fill:none;stroke:#F15A60;stroke-width:0.5" />
<path d="M275.56,100.33A2.5,2.5 0 1 1 270.56,100.33A2.5,2.5 0 1 1 275.56,100.33Z" style="fill:none;stroke:#F15A60;stroke-width:0.5" />
<path d="M278.05,107.36A2.5,2.5 0 1 1 273.05,107.36A2.5,2.5 0 1 1 278.05,107.36Z" style="fill:none;stroke:#F15A60;stroke-width:0.5" />
<path d="M280.54,112.77A2.5,2.5 0 1 1 275.54,112.77A2.5,2.5 0 1 1 280.54,112.77Z" style="fill:none;stroke:#F15A60;stroke-width:0.5" />
<path d="M283.02,121.08A2.5,2.5 0 1 1 278.02,121.08A2.5,2.5 0 1 1 283.02,121.08Z" style="fill:none;stroke:#F15A60;stroke-width:0.5" />
<path d="M285.51,129.42A2.5,2.5 0 1 1 280.51,129.42A2.5,2.5 0 1 1 285.51,129.42Z" style="fill:none;stroke:#F15A60;stroke-width:0.5" />
<path d="M288,121.54A2.5,2.5 0 1 1 283,121.54A2.5,2.5 0 1 1 288,121.54Z" style="fill:none;stroke:#F15A60;stroke-width:0.5" />
<path d="M268,44.369L288,44.369" style="fill:none;stroke:#F15A60" />
<path d="M280.5,44.369A2.5,2.5 0 1 1 275.5,44.369A2.5,2.5 0 1 1 280.5,44.369Z" style="fill:none;stroke:#F15A60;stroke-width:0.5" />
<text x="187.02" y="-38.703" transform="scale(1, -1)"
	style="font-family:Times;font-weight:normal;font-style:normal;font-size:12px">rows per second</text>
</g>
</svg>
